<mxfile>
    <diagram id="xkNCWuvFBzXqKHM_roY3" name="Overview">
        <mxGraphModel dx="904" dy="491" grid="0" gridSize="10" guides="1" tooltips="1" connect="1" arrows="1" fold="1" page="1" pageScale="1" pageWidth="850" pageHeight="1100" math="0" shadow="0">
            <root>
                <mxCell id="0"/>
                <mxCell id="1" parent="0"/>
                <mxCell id="13" value="" style="shape=image;imageAspect=0;aspect=fixed;verticalLabelPosition=bottom;verticalAlign=top;image=https://media-exp1.licdn.com/dms/image/C560BAQG4o8_wm_RFJg/company-logo_200_200/0/1609860108272?e=1628121600&amp;v=beta&amp;t=UN3Ccs5jaMUtjpFMSXfqNuETMFFadim6-J08MsScSFk;" parent="1" vertex="1">
                    <mxGeometry x="145" y="127" width="200" height="200" as="geometry"/>
                </mxCell>
                <mxCell id="3" value="" style="shape=hexagon;perimeter=hexagonPerimeter2;whiteSpace=wrap;html=1;fixedSize=1;rounded=1;size=42;direction=south;" parent="1" vertex="1">
                    <mxGeometry x="250" y="10" width="141" height="159" as="geometry"/>
                </mxCell>
                <mxCell id="14" value="" style="shape=image;verticalLabelPosition=bottom;labelBackgroundColor=#ffffff;verticalAlign=top;aspect=fixed;imageAspect=0;image=data:image/png,iVBORw0KGgoAAAANSUhEUgAAAHsAAABFCAYAAABqt5miAAARk0lEQVR4Xu1deXRU5RX/vZlkJuvMZBk0tLFYStXWKkdaxB1RyiabBalIqWUTFKuCFbELIBXUNiIKiAYURFEL0eBCWIIeq+ByCoVqEe2hQmPBZp2ZJJPM+nru9+Y9Z3nbbE5i8s7xD8l733J/393v/YbjeZ5H79MjKMD1gt0jcGab7AW752AdH9i+Tz+D76N/gsvOUieRyYScYUPBmc2apOQ9HviOfYpgYwP4NjdgMsFgs8FYdiay+n1H8/veF/RTIC7Odi27Hx1Ll4CDVXEGHk6YZt8C2+OrFcGmQ+N59wA6llUgWPexNBaNS9+HP8ZLhyN3/kzkjhkFg8Wif2ff8DeDLheaR01C8MBBAHkyu3XDcOkgFO94AYbSkvjEOHFgy00zENj7PmCVG1yYj69zILfibhQuuCNmAbTAtnXr4XlsE/jTp8DZzwRystVhcbrBDeiLote2MW7vfQQKBBub0GAvhaHsPFmS8KdbYVowDdYVSyWm083ZBFSD1QpD+fmq9CawC6vXIXf82Ij3vEf+gZaBF4JDH3BlJUCWUR9unT5kTRiKoqfW63u/h7zlee8DOC4doogHX9eEvI3LUTBj5leSU681TqK3+dxzNMGG0w3bhzXIPuf70iS0MOelk8DZ85U5udMXCVOWQTgQTjdMt02FdcXyHgKjvm22bdwE96w7wZWXy3M2Md3ODcgdNSJ+sNtfeAntU29RHJyN6A8A7R7YncelCaRDQuJGjpudbvau8YqLwBXbBFXgdiN4ugHBA0fAox6WnbsiFq2PHN/st5on3aSsUgkHAMUH34xQfbrFuOP2hfA9W62qr9HpAzfgLJTu3yPoFZcLLTfchOChf8lyNIl8w6B+sD6/EcaSEnCFBQLYHg/4djcC9fXw7HsLuddP6LXMo85u44+vAH+qSZ6BCGyrCfZPDkd8pRts1cFDQ/J19cituE8yzlwPPozOxSvkpUGnD4aLBqDoL8/3WtlxCiH/iZNoGTUecHoVpWXW+GEoerYyfrBp8Kaz++lakrW2FjnXXMO4Ws2go4ORt+EhFMy8Wde4vS99RYHOffvQev0cRSnL19Uhb8OjMbTVxdkkVoPNLbroLbpHAldXgCvvI/sd+delp073ulO6qBr5UtvTG+GeeZ8qbYsOH4Hpwgvi5+wE1oOmkWMVdTXT53Uf44zeHEwipIXzvt/Ds3ITuHLBoI1+SGqWnDoSw0iqnE2Ou3vHa6oLMlityJs0ESTqO3fuBswmBBvq4Vm3Rfk7fwCczYK8+xch6IyMmMHjRe7EcYocL4ZXfUc/gbemFv7a/Qie/iRiLoq6mcZei5xRI5F1dr+kbAKaj/ZGYWLv2+/CV1UTO995F8M0/XqYr7oK2QO+J0WsEkFSnI8ijL6397P9kYdD3orh7LNgPPsseKreAP/5F4r62jh8CGxPPxGzb1WwSTc4r71WMTxKoc3cpctgWfIHtK17Cu233RJ6Nw9cuRCiU3z8ARZFi3yM4NEMu9MpCxC5fwSwb8vL7D2D5btAvjl20043eJeDvZM1YSLy5tySkOvWUbMbna+8Al/lG+DxBTh8G1xZYex8nT7wDS3MTcweMwmm0cNRcOucuLEmN7V9/RPwPrqdzSftj0Zq94B3eQF4VYNS5OHkLJ3NMIl+VMEWHPdFqrrBduB9mC+5GC3TZ8O/401110xr++wA/A99+KaIN5lBMn8h+GN14Cy2+Obo9CHY8CmL11v//LAuLqdon3PGLPCHPgNnKYl7Pr7hSxhHXAHr+jW6XEYyZl2/XQbPmkcEgFXC0VoklIucid+ogk2Jj86llYq6IdzI0tLRWotkf3e6kTVluBQaJZHWtnY93AvvhMF+jnYcXWUSslDNi2/XjMS1PrIaHQvvj/9QRc0txhBK//aOuoA7cRLOufMR2H0AXHlfXWRSfcnphmXXVsaAujmbTptj6kwE3jkkf9JCAZTimu0InP4SLecOBY/T4FCsvWinG0HXv2XXXLD1ReTfOIW5bs3DxiB48Kj2eDpJRIDnb32SjR/90MFyzJ4P35Zt6lFCnXPRa2QomRfPUTxgYr4gWW6WlhQKppS8s0/WblDkbDLOGu0/UBThxIXZs26ArWIly8B4jwjRmkB9o3pYNcS9uVMmxxLc64f5Jz8GTNlwzJgHf9Vb2ro/DuLTmsnQKap6Lib9SmrIt+VV5f3GM4/4bsgQte18KUack352TLgBaOpMSmJFLIvALiuA/eCHsqtVBFs6dQpZLhYU2bgiIqtCM3TseA2uCeNUszGF1U/GZMXCV9c08XoEqt9PLdChCeT8ewoFe9dsTBlHh++F5hMDTeK/C4zUX1+KN45DRqqD0prEgHKPItiJZFVoAsfCxfA+8pyKD1iHomMfRmTFwhdGAYP2mbO0s2txECGa+OEBB7K4W0dPTy1Hh00YHc0S1UXSxqzM/tXUFL2uCLaqdU3iIssI296qGNCIK4P7jyqKJrVgCrOCr5yYlDWqdQZoftGDIFujqe8PwZWdoT+/rjVB1N/5ulPIW7tScsUEA3BJ2qRIyecnFD0ARbAbBg0GTrcpZ1VkdAMz1MZOVs7GRGXFoulGFn1g92FFqRAnnWVfJ7CLj33KDqkghTanRV2IkzPO3ljB1B3Rp7FvWXqkFjGgP4iSo/sVgzqyYNOimi8eLuSnFXLQFKUp3v58BEGpSME1/peKXE16PmflQljuvScGCK3Ki1QATWMQ2BS08X9+As7hN6TOOFJYYLgkcdx1F3xPv5oeyUWG7/hhsFWuUaz9kwVbO6sSKZrEfbq3v4K2yb9SFFFyxor4ra58ebKIh7mL7RueQcdCSr/KJ2qSnUr6PlS5Q//fcu4lKXMjo9dHwZSclXfKMpL4rizYgnFGWRX5kGf4aQ2fVMh0Par4HemvomPvxeh5ckOcE6eDd7jSpjtpnSJBCm6di6aLr1TOB6cK6U4fjFcOYhKwZc5cFnZVSl4kOyXtLX/rKtkYgirY8UTOJN1E1ac/m6YahGHFCs9titEpZBG7Ro9Mjy6LsIwdsNRugvHb5frq6ZJEILyY438cl979+QOw1rwYk9YM30IMZ0uRsw8/ktdnYaIwvI5bq1iBBWFmjIP1wQdjdIqQsiM/VyN5kgzxad0/Kkfpvr0saeO+bXHaRKq4TNE+6HijBu1Tf50+lREKppS8Vasa+48BW3JHFOK0ouMeXo9Mm9OqPlWrJ2+87KfgPz6eHsMlRHkivKX6VRbMSUnSRuPgEVeb5k+D7fEKpNUwo3WEHWS1ZcWAnWjkTDsIU4/Cnc/KphrrORu4sr7p09dRYdLGa4aD/6gufZZ4KEZdVLMDhoICtEy7WbWQIxmBJdkiS+fKpjVVxbg2aLH1yMzSnDMX/pf2qtRFnULx54dkHf506zMyXmyHd0n6LN1gkxQp3PayVNShWhyYLNIhd1JPuXUMZ2tGzqwm0IkNb7qjEGDz+Emqp5cs8eg8tbjPxh8MAd/oSAunEeHzNzwTUXzXfN1kZUMySeLTwcr+xRipspMkpWPgyLTaI3rr+WLAbjhvoLJLopBVobIdx6RpypGzkBgtfn2bLCkF639tyg0YpRy2YKDdk/KQJdklWWOGwLZ1o2QoJQ02NVHIVeOIlCR9XWpD8ft7NAszIsBm9ciDRyhzGIGmFDkbOVVVhIfHh6MRF9qDRqfUOiagTQvmyWaA0hG2JI42DOqPkv21Ed4GY4TRUxKKIYhSInD8pGrNGRV8qHXNyvrZiUbOtFqDSMzIlbaGgy7EqZ9KHnBWD/YlclbepxpNSmVCgvZnnr8AlgeWxHBXolkukhLGEQNhe6YSzcNGKkpblmpeu1xXzVsEZycaOdMqbSUfu+jIm5r1WNR1Ejz4WWLinNWvOZhutLy0QbYsJ1qiSHnsBD0B4jzObkHuyntVmx3iDRqRfWOccBWKKivh/+9/WferUvesUtesnL6MAFsCjSooZR4q2bU3NEZEwOjkNg0bC/5f/1EMwhgH/wi2Tes1S2zF/u2OxYvAoQxcmU3dHQtleqigkEp7clcuQt60n2vqrvCtiQEW+jddqU4mORqoJofVtOXPmaV5iJm3Mn02vFs2KEfRQocVcDOpVHjXHUwdSPYFHcjoxx8EsgywvVWtWB8g63qxyNmMeQgc+DtrCot5nF4YLugf05ulJ3IWb8stK6l96hn4dtawsh2+wcWI+9VjBGfJBfoWgutrR968W5Ez9ErNw6RkaJMOb9/8LDzbtgN1LvAN7axkN4JQlgJmKHF9S2CeOgl5N06Jq5uF6NT64J9Ycb+wF3E/JqGVuSQH2aNHofDuOyLGZd2aSpi0B8ANOBPFr1TpOuARnE3lMqqPKTtmUO0gjAN5a3+vS6dEzx3eEMC7OwBOIBCXWwBjn1KYLhyYMMBK+6T9BE6cRIBoEZoPvBFZ/cpZTD287zwRL43GpwYHvqONfW6wFCNrQH9kn3uObGqSDiKXrX47hXiNhtZ6dPV6qQ2iFWcmvWap3cKa/XqfzFIgabC14sxKfUeZ3XbPnD0psJlxNvo61TgzcXYfPrrNp2cSO9O7TgpszaKDUKlMdFN4pjfdU+dPCmypDNdeJEs/comi49I9ldBdYd9JgU2Rs47lq4Ai+cvo+OZ62Kr/ImvBkgrQcwPi10Ekcovg9bFOlGQe2k9X2ZPcPpICWyKSAoV4nw+G4iJZAlDyQ66tNBliJ/ot7cN59z0IHD8OLjsn0WFgWV2RtGuW8OQ6PkwKbB3jK75CsWlD2ZmqBXLJjB/vtyRpWletBkXvWMdoPI/Hx3rI9EQJ4xk21e9mDGzW2HbFONWi9lRvVs94Qjn0bUKETm+fdKi+zrZqlZ4pMvZOxsCmHVOFCjXJd7WrKukguu5YiOB7R3UBrlZflzFkZSbOKNgkyqnRXizh6UqE0bqwL3ytlDu3HtitK9OWyT1mFGyxRzl47AjEJvxMEkOcm/S3a9kfVW8kCl+nWDLc1a/IzijYRDAhp/wCKLVnqa3KeAydEg+uJUvhq3xRX9mSP8BuT+oO13xlHGwpRVp2HiNa/tonE8qQJSsRiJs7d+0RLhKI5xIbMs6mT2D14V39yTjYRCDxWi2qxiCRmLP4dyi89ze6crSpIDClHduWPwR/1S59BQxhkypdHZmKdaV6jC4BdnSdFiVP6DIeup7CfPnlaYlK0ZzeQ4fR/sCf4Xtje3zcHIaCnvq6VIOW6HhdAmxavPQzCOIVWKE70agWq+CeRSmzdEltuLe9DG/NXvirasFRBYpef5oWSpfgiz91oXJBTqKApPO7LgM2bZJZ54NHRRI/dGkd/VhM3tqHYbpsCIx9+ugqCRIv2KV7y6k6pHPzc/Dvfl24vstuj68pgR2+Jta/5dsh3KfO7m0bPwzWNRVfm8pJ5jB0KbBpI1KZU/Qld9L1l2YYRwyG4axvwVBqZ6VChj526eengm43AidPgne1sp+PCvzz3+wXCQBP/LcVipQN3dtGLTbmyy756sJ8jw/mBb/sMjF+rYPQ5cAWAXf+fDpwqlXxwj14hN8U4V0dzG0TfyJK+BmqQnAWE2DOZtWXun98JppaIVWSPXsyrCsekOrdxEsHqGgwf+tjXSa+3y3BpkWL97qQtav0oydam0v47yGQ6aJbavPNGfnTCCNRbE+mg2U7/FfVBviE15CGD7skZ4fvkxoXOhYsZzfypuuKCmm+UIDEOOhy5MybqVr4T82IgU8+6BbBFHF/XR5sUay3r10Hb+WTytdAJ8oJZF17fOwuVWpMoHtJcoZepWkAit0z3am+rluALeJITXLuzZvh3fMuggfofk4zOCqJ0vrVv/CDwER0KwD6Lw/GEYNg/OH5yJt+Y1zimAzJzurqbmOcEQm6FdgiZqTPCXjPnt3wvrYXgYPvxvC13O96sg2jDNmzx8F09dXI6tcv4Zv/yV+nu9Sif4cjUQHzdXzXLcGWIwwFZagJjjpHgg4H4PWyX+zlTFmCi6bTN/86iJ6pOb4xYGeKgN1p3l6wuxNaSa61F+wkCdidPv8/g4KZudCy9KkAAAAASUVORK5CYII=;" parent="1" vertex="1">
                    <mxGeometry x="258.2" y="57" width="124.6" height="70" as="geometry"/>
                </mxCell>
                <mxCell id="16" value="" style="shape=hexagon;perimeter=hexagonPerimeter2;whiteSpace=wrap;html=1;fixedSize=1;rounded=1;size=42;direction=south;" vertex="1" parent="1">
                    <mxGeometry x="90" y="10" width="141" height="159" as="geometry"/>
                </mxCell>
                <mxCell id="17" value="" style="shape=hexagon;perimeter=hexagonPerimeter2;whiteSpace=wrap;html=1;fixedSize=1;rounded=1;size=42;direction=south;" vertex="1" parent="1">
                    <mxGeometry x="10" y="140" width="141" height="159" as="geometry"/>
                </mxCell>
                <mxCell id="4" value="" style="shape=image;verticalLabelPosition=bottom;labelBackgroundColor=#ffffff;verticalAlign=top;aspect=fixed;imageAspect=0;image=data:image/png,iVBORw0KGgoAAAANSUhEUgAAAJcAAACXCAMAAAAvQTlLAAAAt1BMVEUUIygGwWf////28OoAAAAFx2oFxGj/+vP69O4UHSYUGCUUFyUAAAQUHycAChT99/GNjowSQTK2s7AAFh0UGyYKoVkAAAwOfkqIhoUUDCMFGiBGS02Zl5RdX18EzWwQYz8PcUUVACESRzXJxL8NiU8Is2Hh4uIoMja9wMAVAB3Mzc2goqPu7u9TVVY8QkR7f4Ha1tERVzsRTjgTMSwJql0MlVQ3ODcTKysTOzBjaGsgJShycG4MFBiTOdgJAAAKHUlEQVR4nO2ca3uiPBCGsYCgSFAQFTyBFLBFKZ617v//XW8OoIDoitbKe63PfigagjeTycwE11BvmXI+va++71KPlOv3v7xPJxuAyoLq9V2GAcpDqZAUwDBuv5eFdsI1+ZwyQH840lE6YKafk79xjafM4+2UlsJMxxe5nC7zm6Y6Sme6znku7/v3bRVJ+fbOcE12zNOokJjdJItrMm09FYuiWtPJKZfjP28MIym+k+aa+ODZVFDAnyS5JtPnWwtJiYYy5No927citXZxLu+5MzEuxjtyOd/Pponp2zlwdYvhXERKN+IaF2cUkZgx4ZpMn5MTz0lHcxJyjWvPJkmpNsZchfIuJORh1JtTLO9CYhzI1StCAkoK9CBXv1hej6T33yjnsYue2+Q61Gfx3As62CdVoNR4FONRX8Vze+j4HWpXtOiFpOwo/9kMmSom1UsvvZSUjpT9dvLgl9X1fb97ktN9LHjgdrOaHy69GzhQ6VV4S6Ydh/ZaMFHgg1/PYXqX5uG/foqrJvM0Lck1CtQ5mubkZ3AhZXLxEZf04npx/ctcF2Psj4bf67l0wAAYZCmGUU4BlBqjuK7OxL9BUWpQqGOLge8/iEsHUy/gkKSg46cedLTcL4tGbfRnpxu1KXsLyquBvhzQvJfzOeWVXMwfmZZ4fCrNS04v/h2OznQcKWzkJbrXIiYDHY7nuTGDO3Jezmc213F5e1qiY+KC7mFgFD/gEm0OaQMdCd2RjBsfw8XDgUDGwOOIDcPTEZjSDRAyjxt51CiRbIu5aIcmjQ/hosnHyZ2p3+9ZhJEnX0/oa2xJKZB33e5eJoz0Wo+4cMfACjo5Hf86LjQSY58Biq7UlL2DSaw/6ERmjF5w8roGdAUw6zGH22pHLs7zdZAxhX+Gi+8cvhhUahZmqcMpptQx49fhGQPzhe27VyIufnfTN4pXcvFx/9C/A9TqQC6Ajrj4ow9GRu5utUIuSb7ti4wr/StIXF2ZYr/pAGWKZ0XiW4E1RnUje3VvywLXcXH7pNsyFm4GjIeiSI8BMTEe5OG+AOZK3dAPc/F06upgh+3kMnhAvXpCHo5bDOGybny6dR2XlZrluo8dbK0HOIJwCeFQYdV+geu0zlnjXl3XobPFB+BOLp8O53VCLesaLt91kL24DN3LRemYK/0M3Q2SeSjlX3qXw+OoEP/qnaqu3MlFXFdO2kvvY9pjnEibE0VP/vMbz0tpz7ROBKh7ueSMMEPejMWJejLt1tDNSB5o9fCsyHxCeieXssMZTY73V1wpZS/nO87d+sLTcKfoPnc6awBJPHdyUTipwPx3dCEFe1ciD8EsfQQDU1RS8AH8SIBSJU+LMWogj13wA1ygTmqTeliD6sw6CIvPWN7m5D/R2oOZklmI5rCCHVEK3OiuFEaG9Wy/dT8XjAkSufhuTemU2/XoqGCO1zlSsHdBq1XTfY9Uf2Sq1HqkPuusAXL37z2qwHjpS7mfS187ZNikAC4UAhpVpPijj1yoeofNcq/nWaSi5oLQ41oWGehAhuFCDnA5y1nuD9grKoURDY+B4KdYyTzkSFFzeILlRi6lyxIfNZIjyQL6T3BRYG1xfCyJcNafZB7q+akT5Ng0qPUSixKJq+NK9ge44Jp1H8DBIvdMB3vAyGiRRbjQqqEF6gFPTpAk2pom0gNwZWgkKTSYHK5I8DpNuo8LXqXV98YBlOX1AYBRrQO1Uyh9WocHfZ1qKXv5M5g4wbjXr6UDKeN2PAt1ljt+VDbrU3SJdOLNLwUo31A6+e+ZOirx9PgBPEGE7aKS9Z8l4VnKt5hsxD2L+GXZSy+9lFOidkbV52It2mc0az6Tq9Ios5kavGvX9BdMLPHnuUrZYtvXcFWMJZK6/WmwO7mENluGKo2Kx4XPfhhXeZDWVf71aK7yajZMaVQpABf7blaTElJYlUzMS1x3oR64LoxaRRCam+2WEgQBflYFY1fIgRlybQX8boTShPfV3Gw28I9wWxg8cH2cO0PURu0ldr+Saiw+xCGOukOqOUd/1TLu/05i8RxDaOLwfVliYQ+2pLZn2i1kf+USNmqJJR8OA4JtaOoARd0lpbXRQTmcvSQWG9Dq4odhRz1gF7a0HF0VofNxmUa5HA8fg+USvS6rlGawJ7EFcokbdZB8t8y2hdu5su9Ja7Pl1Kfg14irncllLk/ehrHQvJnLbCaFp5/5zkb3jBSjO2cvOLphh5INhzPqPstbnURcq+0oqQZsFObhkLD2+2w2a9sHEmyvU/9qaxs8zCV2ORw1tqPZivQor64JhhlcePYkVGqI1MYmg1YyPrRmpamZM7t84Ko0IOpsRd4YzrEWzTlpXn5UK6JYaX7MwvPzJvaz+dHeigIZqXKpETmf1gjBIBclCkIsfuHBFyszYq5DctVIYh/kHchLXB8hxPw4nYQonarh65CrEZoj5CrbDU3DQycuVKxhzil5gau5GRDXi4eQcCac5RqF3KXVcGuaWhWOPlbe2HqoJ9L1Khw8MoyDRKITFxftRVXUyAPZAZwtxmwraLckyqieUI20FuY7jqB2KvZEcTWbqzqPRVV4syVbbTdzR694vBeSqlIavvXyKhlxq6uLXJQ2LCXjGoR73+ReXF2I9+e42ItccGosB8ncBaPZ4kb/ysqPJrHMMjkKonrZXvAMs7FaQjPF2Fh7c1v8yuIKEyCb9NuNfdHvyUVNaj58t2GdE7ENrlotXMfVbAxOh1gzBhe5mqFzijA7mPO2GiWIUk7fv1RPmOE1t0fnqFTs8iWuJlkmzEgUhbFrYUQXyTeQx3pCTAnaJoyh9iYK1lVKPeahBFeYl01cNbKH17BKDDPoNl/mvmQvMcrpy7mJ0nDT3EbFVYqLXZkfSFp1GKaDj2bERQqMUs6C4my8R+vHqMQqsyosW0Yz9eDHBy4jKrHxH0Nb2GGdM1tUqppANVYh6G3+dSpcEhyKT3ZQOhbtMa7qMB6p4KwL5wUEtVV1tVLDIDuY/VTexlwipZ5WxXGuMC3F+piraKixwob3W/N2NhdVEVOrCGiHBJcwG5RTfVapdQe0lpp7kQu5ypkKI6EoDO3j+LHl5Qjbgz3YC7cn+piGHc9DsNJvC7lLCnGrZmtphB6hbY0li2f/ALp/pbqykVaHK8AQRd6CIn20jaGWBgMyfVi73bhh/QhdtypkqXqY2LBeXsyMdtuYbQS40m+i86sxfxGFw0MN8dBDbAxhl7Yxp6r5jXW1xGruJ8EVgTw9fhzUSy+99M+omL809Av7e9Fi/r72q7C/Ry7q77eL+nv3ou4PUNj9FIq6/0RR9+so7P4mRd0Ppqj75xTMw477DRV2f6ai7mdV2P2/3iYFcTGlm9wv7W2yLgKYsk7tL/f2FrjPB1PWwf9m/8LC7vf4VtT9Md8Ku5/oG9p/tfb7ZHrtL/uvIi9DPwD95f1q/fFf96vFo1nE/X1DNLQf8qNXSu6F/ZD/A6kPNS75yWWUAAAAAElFTkSuQmCC;" parent="1" vertex="1">
                    <mxGeometry x="30.5" y="170.5" width="100" height="100" as="geometry"/>
                </mxCell>
                <mxCell id="5" value="" style="shape=image;verticalLabelPosition=bottom;labelBackgroundColor=#ffffff;verticalAlign=top;aspect=fixed;imageAspect=0;image=data:image/png,iVBORw0KGgoAAAANSUhEUgAAAJcAAAA/CAMAAADaDqrIAAAAflBMVEX/////RB//Qhv/NgD/MQD/QBf/KwD/PA//PhP/+/r/8/H/zcf/6ef/OQb/5+T/ycP/IQD/wLn/mo7/7uz/0s3/eGb/jX//iHn/39v/2dX/oZb/sqn/fWz/VDj/ppz/raT/bVn/TCv/uLD/Z1L/k4b/YUr/g3L/cmD/WkD/TTLgTummAAAIaklEQVRogc1a6ZazOA4F29hAIIGQlVQWklSW93/B8SbJENLd802lenRO/QjCRpaurmS7ouj/S7J/24AxyXan5/5r9lafb+vzsT3s6kX+i1ZFxV6kjCm5HFNm51siBOe81H9CqOX5t2zL4jS2wr9edIub1DbHJCzlcrn4FbvmHD4qJwOrLlLFr5LK0/QX7CJ/qHX4vLkL70imdAS1lPBmKo4fNyuv0BHJJXh+rsAq0a3rbZMXi8OeXHv9tF3ZuF034R/y7kwkcoCnsTh82rCY4rjChxfvGVZde9TWkse2H7aLfICfyr5L70FuUyFD27InrCL5/rBd0cMbIRAzS++VJJ5G2eH+vX8+TquNVa0xQ6vNh+3K71IlaSnn8AA8yLjmA52VCWNJUgqr22Eg+edzcrK6nOa4/ClkgtSPFpgWlQ1mjXYFaPwduSQ+rsYhp6RPbmeya/3X0/y0bKUnT8MaG8o/x/Hz8sVfxfl2Oq0nbye0spjfT8vjm7ZlctXK3d/0NDePbG4CizBP704LztR6x2DTpeAankraF/JZHfBHNvG/Fk9RpknKVWA9vjrrnDINE2lTz5qeWcAEqWkvGgW0INyMDVUtV01bmYKdX1G2roSQ5c5P1VaCS5MeV+lHMWK9q3lVnaPoC5UCy+6i09rqUgR2Ff7LdoYjhJHtnRYfaEszQ3RIfjoxGlckmHSZepTu1/xOLyV7sNkr2wvNqO5gg7RRUXH+YhdLzI8OvOODlrFekc87ZDP9PDlBkYjtu1BIFHjULtc1SVj9yiRUeoed/AixI7t8HJVhs4VE5zjLV4j6WHNb3sEXWWlGwSdcKTgHrmQc3lSOvNtyTOlXP4GRIuyhHdS5jny0hAGp62UnaGfMtd0n9BavIyr/sajNy0/qJ1lZr1Roc9aRMmEz+I6nngt0Ml2Yorkw6zb+zqlyWoxPE5zN4CQorHUQcj8d+Vo7ZBvVUENsjGvyJSsLLCLJKQpH8n7PMo2FKmUT1BzGzPMNQywkvImmODc3TPZAu9x0J0KVyeW+XcQ2FlOQTa7RwpFywGh6r2Gr9DeM5q1ZBiezlFZ/QRSdf5BRmDJYLILENXYewpzYkC+FwcsVgmzswjJYvuk9ieuFNqMVlIq6zYi2vShGhC8HEmrUkof5DWxtCedKRcNSAzggNTsfQCJm51BwQ6LDvnjid5g4Gf8sYbhDMrmgMtNle+JfS+MAP/tpXJIBlxaY2yRrBiCGCvMi1ALe75LQE5+j0Nu+EmA9d2YS6l00KDiHEPUWINECe/ZzMJF4U3G3BIIEMczF1TEZ1m9fCSBOniSwrrLElrlj+DVEPSv7cxnXAuqhwrzIdbh3ZKkQc6gMHCvBuedcFpsgZ+Qu120+wBTdxU2ptTz0lCaBCvRd+8YuHu6zzSh2r1GJlMy4cy78dmEjrhfWXQXYaTLugPRTZr2x6itQiubVpEEY/YthG4Jx8nUFM8x2RxSp1J0tYNnhu4B+vC+xuBkIgNJR7IjMh2GUoV2Ybq5xwbriSKEZbrEwhbQXKHNdX5MB87E0jxrIDwfTaHsf7lOfgzDGIjgu2VD/47p+RIWdZtgeodrUWUS530bjy+oWlBjH9QVXVd0zi0gVhAcvIH58M42hccHe9wpFgHrTIOCCuetiEMcmIAAA3yh8p3349BpAmCbYl636rIBYdFlAqHexR3exZ4hbXvQ+ZCCANdd97Mpt3xLKPWzm0M0v2tJChGDeb759lLH3NsWQyMvGOMdOU84CFrQL2knqb73kOBcDExyko15gfEuD/ilb01hifXdLwVJpemDiett5Gpf46XWdmFEh0CxRy0GyRUEdYU9o2hhDRsH0Y48euuLyGOUPSmTLuQUBqA5bONuMbojoFlGDSsZyjQb2emqEhJMucYdNCUm0YFLqSE2efrsLAMANS2A7pU5RQ76MKwMv/K05tUlIyc8rYUcMBAHEzwMqt3Y9A7t6BJz2qoRB3xxBn+RbEewyKj3RGkOc6iCGQ7n2etK9bHWp9ZoWWIIJgxA5/WjKhkRHooroTJWyPsjw1SrsxNXsqs1KeqOD/STCHmjXJP6zz+1GsFdNVqw/WU/4mb4cx48+9QhtCv7o9qW249Kba3gMHQWxSW+vuyItO1ro0Fu937zsadJebeOqp1R8VgSQYGLkooO2JOfwyKsCxzahOSz8On+8DSuTp4V4p0zEsgk6oHGzKI4maaa4CmptrzRDmm4we/W+HjugcoiWrqZmdNBEJXI/CfMpVmr8+PbmJmCd+UGxEVgjASyJ+G70MtwbStdQ6IDUlba9eo8k9mYonKbxY0AnWvnwzmmFX8PlzW1PdrJZqyyiDrTnUBDJ7Etypbjc2+JbC/OD3xqiNrHJH1KpVJlLiefKLR9PIvNpJ0C5v5JvTnpIKbtd9FaOTArpijm1U5pScCGbdr1uYcZpu17tDFFCd8WEtn12vd1uq7aeeh6COmNqTlav+kon9Wo9n/z1Cd2mhhfoEDpOWZ9UBqdnWChGTzmhDSnnI8o/kCBPDLTRZflRSNlHAjCuqF9moU2k+KkbuXlIiZytZptiut0tFR8e42eEoNdZoNdk3Y/dYXZh0usE4mmp//TyZf/SEhF0GZkEiPDtTvq/l6kcpUs2vPADBPGxay0oHH7L+SMyESOG8W4IFEDQ2K0WUUjxqvxjmclhgU7kapjQhc9G9hxJdaSQ+AfN0qF8hsVDY+zyenEF8ErH7vChCKmfvlM9PqWyTkuUUF9juQ7I5mOEDRvH0Yr8P0k2Wz94JcvvdT1+egC7Cj52Bwg7suoj/+mQZdn7MpG7UDM1pvRHNW8PkD4pteWTN3e5O6sM96G/J7NYlmX1hqBqLlRZ/Ti8/pFks7Z9W/6yum3/6L7+P016dN1sVodjAAAAAElFTkSuQmCC;" parent="1" vertex="1">
                    <mxGeometry x="98.18" y="63.5" width="124.63" height="52" as="geometry"/>
                </mxCell>
            </root>
        </mxGraphModel>
    </diagram>
    <diagram name="Getting into" id="pBnlV9RkFH7PJCUNcK2J">
        <mxGraphModel dx="820" dy="491" grid="0" gridSize="10" guides="1" tooltips="1" connect="1" arrows="1" fold="1" page="1" pageScale="1" pageWidth="850" pageHeight="1100" math="0" shadow="0">
            <root>
                <mxCell id="3ekeltng3_tN8vzP2xMl-0"/>
                <mxCell id="3ekeltng3_tN8vzP2xMl-1" parent="3ekeltng3_tN8vzP2xMl-0"/>
                <mxCell id="3ekeltng3_tN8vzP2xMl-2" value="" style="shape=image;imageAspect=0;aspect=fixed;verticalLabelPosition=bottom;verticalAlign=top;image=https://media-exp1.licdn.com/dms/image/C560BAQG4o8_wm_RFJg/company-logo_200_200/0/1609860108272?e=1628121600&amp;v=beta&amp;t=UN3Ccs5jaMUtjpFMSXfqNuETMFFadim6-J08MsScSFk;" vertex="1" parent="3ekeltng3_tN8vzP2xMl-1">
                    <mxGeometry x="145" y="127" width="200" height="200" as="geometry"/>
                </mxCell>
                <mxCell id="3ekeltng3_tN8vzP2xMl-3" value="" style="shape=hexagon;perimeter=hexagonPerimeter2;whiteSpace=wrap;html=1;fixedSize=1;rounded=1;size=42;direction=south;" vertex="1" parent="3ekeltng3_tN8vzP2xMl-1">
                    <mxGeometry x="250" y="10" width="141" height="159" as="geometry"/>
                </mxCell>
                <mxCell id="3ekeltng3_tN8vzP2xMl-4" value="" style="shape=image;verticalLabelPosition=bottom;labelBackgroundColor=#ffffff;verticalAlign=top;aspect=fixed;imageAspect=0;image=data:image/png,iVBORw0KGgoAAAANSUhEUgAAAHsAAABFCAYAAABqt5miAAARk0lEQVR4Xu1deXRU5RX/vZlkJuvMZBk0tLFYStXWKkdaxB1RyiabBalIqWUTFKuCFbELIBXUNiIKiAYURFEL0eBCWIIeq+ByCoVqEe2hQmPBZp2ZJJPM+nru9+Y9Z3nbbE5i8s7xD8l733J/393v/YbjeZ5H79MjKMD1gt0jcGab7AW752AdH9i+Tz+D76N/gsvOUieRyYScYUPBmc2apOQ9HviOfYpgYwP4NjdgMsFgs8FYdiay+n1H8/veF/RTIC7Odi27Hx1Ll4CDVXEGHk6YZt8C2+OrFcGmQ+N59wA6llUgWPexNBaNS9+HP8ZLhyN3/kzkjhkFg8Wif2ff8DeDLheaR01C8MBBAHkyu3XDcOkgFO94AYbSkvjEOHFgy00zENj7PmCVG1yYj69zILfibhQuuCNmAbTAtnXr4XlsE/jTp8DZzwRystVhcbrBDeiLote2MW7vfQQKBBub0GAvhaHsPFmS8KdbYVowDdYVSyWm083ZBFSD1QpD+fmq9CawC6vXIXf82Ij3vEf+gZaBF4JDH3BlJUCWUR9unT5kTRiKoqfW63u/h7zlee8DOC4doogHX9eEvI3LUTBj5leSU681TqK3+dxzNMGG0w3bhzXIPuf70iS0MOelk8DZ85U5udMXCVOWQTgQTjdMt02FdcXyHgKjvm22bdwE96w7wZWXy3M2Md3ODcgdNSJ+sNtfeAntU29RHJyN6A8A7R7YncelCaRDQuJGjpudbvau8YqLwBXbBFXgdiN4ugHBA0fAox6WnbsiFq2PHN/st5on3aSsUgkHAMUH34xQfbrFuOP2hfA9W62qr9HpAzfgLJTu3yPoFZcLLTfchOChf8lyNIl8w6B+sD6/EcaSEnCFBQLYHg/4djcC9fXw7HsLuddP6LXMo85u44+vAH+qSZ6BCGyrCfZPDkd8pRts1cFDQ/J19cituE8yzlwPPozOxSvkpUGnD4aLBqDoL8/3WtlxCiH/iZNoGTUecHoVpWXW+GEoerYyfrBp8Kaz++lakrW2FjnXXMO4Ws2go4ORt+EhFMy8Wde4vS99RYHOffvQev0cRSnL19Uhb8OjMbTVxdkkVoPNLbroLbpHAldXgCvvI/sd+delp073ulO6qBr5UtvTG+GeeZ8qbYsOH4Hpwgvi5+wE1oOmkWMVdTXT53Uf44zeHEwipIXzvt/Ds3ITuHLBoI1+SGqWnDoSw0iqnE2Ou3vHa6oLMlityJs0ESTqO3fuBswmBBvq4Vm3Rfk7fwCczYK8+xch6IyMmMHjRe7EcYocL4ZXfUc/gbemFv7a/Qie/iRiLoq6mcZei5xRI5F1dr+kbAKaj/ZGYWLv2+/CV1UTO995F8M0/XqYr7oK2QO+J0WsEkFSnI8ijL6397P9kYdD3orh7LNgPPsseKreAP/5F4r62jh8CGxPPxGzb1WwSTc4r71WMTxKoc3cpctgWfIHtK17Cu233RJ6Nw9cuRCiU3z8ARZFi3yM4NEMu9MpCxC5fwSwb8vL7D2D5btAvjl20043eJeDvZM1YSLy5tySkOvWUbMbna+8Al/lG+DxBTh8G1xZYex8nT7wDS3MTcweMwmm0cNRcOucuLEmN7V9/RPwPrqdzSftj0Zq94B3eQF4VYNS5OHkLJ3NMIl+VMEWHPdFqrrBduB9mC+5GC3TZ8O/401110xr++wA/A99+KaIN5lBMn8h+GN14Cy2+Obo9CHY8CmL11v//LAuLqdon3PGLPCHPgNnKYl7Pr7hSxhHXAHr+jW6XEYyZl2/XQbPmkcEgFXC0VoklIucid+ogk2Jj86llYq6IdzI0tLRWotkf3e6kTVluBQaJZHWtnY93AvvhMF+jnYcXWUSslDNi2/XjMS1PrIaHQvvj/9QRc0txhBK//aOuoA7cRLOufMR2H0AXHlfXWRSfcnphmXXVsaAujmbTptj6kwE3jkkf9JCAZTimu0InP4SLecOBY/T4FCsvWinG0HXv2XXXLD1ReTfOIW5bs3DxiB48Kj2eDpJRIDnb32SjR/90MFyzJ4P35Zt6lFCnXPRa2QomRfPUTxgYr4gWW6WlhQKppS8s0/WblDkbDLOGu0/UBThxIXZs26ArWIly8B4jwjRmkB9o3pYNcS9uVMmxxLc64f5Jz8GTNlwzJgHf9Vb2ro/DuLTmsnQKap6Lib9SmrIt+VV5f3GM4/4bsgQte18KUack352TLgBaOpMSmJFLIvALiuA/eCHsqtVBFs6dQpZLhYU2bgiIqtCM3TseA2uCeNUszGF1U/GZMXCV9c08XoEqt9PLdChCeT8ewoFe9dsTBlHh++F5hMDTeK/C4zUX1+KN45DRqqD0prEgHKPItiJZFVoAsfCxfA+8pyKD1iHomMfRmTFwhdGAYP2mbO0s2txECGa+OEBB7K4W0dPTy1Hh00YHc0S1UXSxqzM/tXUFL2uCLaqdU3iIssI296qGNCIK4P7jyqKJrVgCrOCr5yYlDWqdQZoftGDIFujqe8PwZWdoT+/rjVB1N/5ulPIW7tScsUEA3BJ2qRIyecnFD0ARbAbBg0GTrcpZ1VkdAMz1MZOVs7GRGXFoulGFn1g92FFqRAnnWVfJ7CLj33KDqkghTanRV2IkzPO3ljB1B3Rp7FvWXqkFjGgP4iSo/sVgzqyYNOimi8eLuSnFXLQFKUp3v58BEGpSME1/peKXE16PmflQljuvScGCK3Ki1QATWMQ2BS08X9+As7hN6TOOFJYYLgkcdx1F3xPv5oeyUWG7/hhsFWuUaz9kwVbO6sSKZrEfbq3v4K2yb9SFFFyxor4ra58ebKIh7mL7RueQcdCSr/KJ2qSnUr6PlS5Q//fcu4lKXMjo9dHwZSclXfKMpL4rizYgnFGWRX5kGf4aQ2fVMh0Par4HemvomPvxeh5ckOcE6eDd7jSpjtpnSJBCm6di6aLr1TOB6cK6U4fjFcOYhKwZc5cFnZVSl4kOyXtLX/rKtkYgirY8UTOJN1E1ac/m6YahGHFCs9titEpZBG7Ro9Mjy6LsIwdsNRugvHb5frq6ZJEILyY438cl979+QOw1rwYk9YM30IMZ0uRsw8/ktdnYaIwvI5bq1iBBWFmjIP1wQdjdIqQsiM/VyN5kgzxad0/Kkfpvr0saeO+bXHaRKq4TNE+6HijBu1Tf50+lREKppS8Vasa+48BW3JHFOK0ouMeXo9Mm9OqPlWrJ2+87KfgPz6eHsMlRHkivKX6VRbMSUnSRuPgEVeb5k+D7fEKpNUwo3WEHWS1ZcWAnWjkTDsIU4/Cnc/KphrrORu4sr7p09dRYdLGa4aD/6gufZZ4KEZdVLMDhoICtEy7WbWQIxmBJdkiS+fKpjVVxbg2aLH1yMzSnDMX/pf2qtRFnULx54dkHf506zMyXmyHd0n6LN1gkxQp3PayVNShWhyYLNIhd1JPuXUMZ2tGzqwm0IkNb7qjEGDz+Emqp5cs8eg8tbjPxh8MAd/oSAunEeHzNzwTUXzXfN1kZUMySeLTwcr+xRipspMkpWPgyLTaI3rr+WLAbjhvoLJLopBVobIdx6RpypGzkBgtfn2bLCkF639tyg0YpRy2YKDdk/KQJdklWWOGwLZ1o2QoJQ02NVHIVeOIlCR9XWpD8ft7NAszIsBm9ciDRyhzGIGmFDkbOVVVhIfHh6MRF9qDRqfUOiagTQvmyWaA0hG2JI42DOqPkv21Ed4GY4TRUxKKIYhSInD8pGrNGRV8qHXNyvrZiUbOtFqDSMzIlbaGgy7EqZ9KHnBWD/YlclbepxpNSmVCgvZnnr8AlgeWxHBXolkukhLGEQNhe6YSzcNGKkpblmpeu1xXzVsEZycaOdMqbSUfu+jIm5r1WNR1Ejz4WWLinNWvOZhutLy0QbYsJ1qiSHnsBD0B4jzObkHuyntVmx3iDRqRfWOccBWKKivh/+9/WferUvesUtesnL6MAFsCjSooZR4q2bU3NEZEwOjkNg0bC/5f/1EMwhgH/wi2Tes1S2zF/u2OxYvAoQxcmU3dHQtleqigkEp7clcuQt60n2vqrvCtiQEW+jddqU4mORqoJofVtOXPmaV5iJm3Mn02vFs2KEfRQocVcDOpVHjXHUwdSPYFHcjoxx8EsgywvVWtWB8g63qxyNmMeQgc+DtrCot5nF4YLugf05ulJ3IWb8stK6l96hn4dtawsh2+wcWI+9VjBGfJBfoWgutrR968W5Ez9ErNw6RkaJMOb9/8LDzbtgN1LvAN7axkN4JQlgJmKHF9S2CeOgl5N06Jq5uF6NT64J9Ycb+wF3E/JqGVuSQH2aNHofDuOyLGZd2aSpi0B8ANOBPFr1TpOuARnE3lMqqPKTtmUO0gjAN5a3+vS6dEzx3eEMC7OwBOIBCXWwBjn1KYLhyYMMBK+6T9BE6cRIBoEZoPvBFZ/cpZTD287zwRL43GpwYHvqONfW6wFCNrQH9kn3uObGqSDiKXrX47hXiNhtZ6dPV6qQ2iFWcmvWap3cKa/XqfzFIgabC14sxKfUeZ3XbPnD0psJlxNvo61TgzcXYfPrrNp2cSO9O7TgpszaKDUKlMdFN4pjfdU+dPCmypDNdeJEs/comi49I9ldBdYd9JgU2Rs47lq4Ai+cvo+OZ62Kr/ImvBkgrQcwPi10Ekcovg9bFOlGQe2k9X2ZPcPpICWyKSAoV4nw+G4iJZAlDyQ66tNBliJ/ot7cN59z0IHD8OLjsn0WFgWV2RtGuW8OQ6PkwKbB3jK75CsWlD2ZmqBXLJjB/vtyRpWletBkXvWMdoPI/Hx3rI9EQJ4xk21e9mDGzW2HbFONWi9lRvVs94Qjn0bUKETm+fdKi+zrZqlZ4pMvZOxsCmHVOFCjXJd7WrKukguu5YiOB7R3UBrlZflzFkZSbOKNgkyqnRXizh6UqE0bqwL3ytlDu3HtitK9OWyT1mFGyxRzl47AjEJvxMEkOcm/S3a9kfVW8kCl+nWDLc1a/IzijYRDAhp/wCKLVnqa3KeAydEg+uJUvhq3xRX9mSP8BuT+oO13xlHGwpRVp2HiNa/tonE8qQJSsRiJs7d+0RLhKI5xIbMs6mT2D14V39yTjYRCDxWi2qxiCRmLP4dyi89ze6crSpIDClHduWPwR/1S59BQxhkypdHZmKdaV6jC4BdnSdFiVP6DIeup7CfPnlaYlK0ZzeQ4fR/sCf4Xtje3zcHIaCnvq6VIOW6HhdAmxavPQzCOIVWKE70agWq+CeRSmzdEltuLe9DG/NXvirasFRBYpef5oWSpfgiz91oXJBTqKApPO7LgM2bZJZ54NHRRI/dGkd/VhM3tqHYbpsCIx9+ugqCRIv2KV7y6k6pHPzc/Dvfl24vstuj68pgR2+Jta/5dsh3KfO7m0bPwzWNRVfm8pJ5jB0KbBpI1KZU/Qld9L1l2YYRwyG4axvwVBqZ6VChj526eengm43AidPgne1sp+PCvzz3+wXCQBP/LcVipQN3dtGLTbmyy756sJ8jw/mBb/sMjF+rYPQ5cAWAXf+fDpwqlXxwj14hN8U4V0dzG0TfyJK+BmqQnAWE2DOZtWXun98JppaIVWSPXsyrCsekOrdxEsHqGgwf+tjXSa+3y3BpkWL97qQtav0oydam0v47yGQ6aJbavPNGfnTCCNRbE+mg2U7/FfVBviE15CGD7skZ4fvkxoXOhYsZzfypuuKCmm+UIDEOOhy5MybqVr4T82IgU8+6BbBFHF/XR5sUay3r10Hb+WTytdAJ8oJZF17fOwuVWpMoHtJcoZepWkAit0z3am+rluALeJITXLuzZvh3fMuggfofk4zOCqJ0vrVv/CDwER0KwD6Lw/GEYNg/OH5yJt+Y1zimAzJzurqbmOcEQm6FdgiZqTPCXjPnt3wvrYXgYPvxvC13O96sg2jDNmzx8F09dXI6tcv4Zv/yV+nu9Sif4cjUQHzdXzXLcGWIwwFZagJjjpHgg4H4PWyX+zlTFmCi6bTN/86iJ6pOb4xYGeKgN1p3l6wuxNaSa61F+wkCdidPv8/g4KZudCy9KkAAAAASUVORK5CYII=;" vertex="1" parent="3ekeltng3_tN8vzP2xMl-1">
                    <mxGeometry x="258.2" y="57" width="124.6" height="70" as="geometry"/>
                </mxCell>
                <mxCell id="3ekeltng3_tN8vzP2xMl-5" value="" style="shape=hexagon;perimeter=hexagonPerimeter2;whiteSpace=wrap;html=1;fixedSize=1;rounded=1;size=42;direction=south;" vertex="1" parent="3ekeltng3_tN8vzP2xMl-1">
                    <mxGeometry x="90" y="10" width="141" height="159" as="geometry"/>
                </mxCell>
                <mxCell id="3ekeltng3_tN8vzP2xMl-6" value="" style="shape=hexagon;perimeter=hexagonPerimeter2;whiteSpace=wrap;html=1;fixedSize=1;rounded=1;size=42;direction=south;" vertex="1" parent="3ekeltng3_tN8vzP2xMl-1">
                    <mxGeometry x="10" y="140" width="141" height="159" as="geometry"/>
                </mxCell>
                <mxCell id="3ekeltng3_tN8vzP2xMl-7" value="" style="shape=image;verticalLabelPosition=bottom;labelBackgroundColor=#ffffff;verticalAlign=top;aspect=fixed;imageAspect=0;image=data:image/png,iVBORw0KGgoAAAANSUhEUgAAAJcAAACXCAMAAAAvQTlLAAAAt1BMVEUUIygGwWf////28OoAAAAFx2oFxGj/+vP69O4UHSYUGCUUFyUAAAQUHycAChT99/GNjowSQTK2s7AAFh0UGyYKoVkAAAwOfkqIhoUUDCMFGiBGS02Zl5RdX18EzWwQYz8PcUUVACESRzXJxL8NiU8Is2Hh4uIoMja9wMAVAB3Mzc2goqPu7u9TVVY8QkR7f4Ha1tERVzsRTjgTMSwJql0MlVQ3ODcTKysTOzBjaGsgJShycG4MFBiTOdgJAAAKHUlEQVR4nO2ca3uiPBCGsYCgSFAQFTyBFLBFKZ617v//XW8OoIDoitbKe63PfigagjeTycwE11BvmXI+va++71KPlOv3v7xPJxuAyoLq9V2GAcpDqZAUwDBuv5eFdsI1+ZwyQH840lE6YKafk79xjafM4+2UlsJMxxe5nC7zm6Y6Sme6znku7/v3bRVJ+fbOcE12zNOokJjdJItrMm09FYuiWtPJKZfjP28MIym+k+aa+ODZVFDAnyS5JtPnWwtJiYYy5No927citXZxLu+5MzEuxjtyOd/Pponp2zlwdYvhXERKN+IaF2cUkZgx4ZpMn5MTz0lHcxJyjWvPJkmpNsZchfIuJORh1JtTLO9CYhzI1StCAkoK9CBXv1hej6T33yjnsYue2+Q61Gfx3As62CdVoNR4FONRX8Vze+j4HWpXtOiFpOwo/9kMmSom1UsvvZSUjpT9dvLgl9X1fb97ktN9LHjgdrOaHy69GzhQ6VV4S6Ydh/ZaMFHgg1/PYXqX5uG/foqrJvM0Lck1CtQ5mubkZ3AhZXLxEZf04npx/ctcF2Psj4bf67l0wAAYZCmGUU4BlBqjuK7OxL9BUWpQqGOLge8/iEsHUy/gkKSg46cedLTcL4tGbfRnpxu1KXsLyquBvhzQvJfzOeWVXMwfmZZ4fCrNS04v/h2OznQcKWzkJbrXIiYDHY7nuTGDO3Jezmc213F5e1qiY+KC7mFgFD/gEm0OaQMdCd2RjBsfw8XDgUDGwOOIDcPTEZjSDRAyjxt51CiRbIu5aIcmjQ/hosnHyZ2p3+9ZhJEnX0/oa2xJKZB33e5eJoz0Wo+4cMfACjo5Hf86LjQSY58Biq7UlL2DSaw/6ERmjF5w8roGdAUw6zGH22pHLs7zdZAxhX+Gi+8cvhhUahZmqcMpptQx49fhGQPzhe27VyIufnfTN4pXcvFx/9C/A9TqQC6Ajrj4ow9GRu5utUIuSb7ti4wr/StIXF2ZYr/pAGWKZ0XiW4E1RnUje3VvywLXcXH7pNsyFm4GjIeiSI8BMTEe5OG+AOZK3dAPc/F06upgh+3kMnhAvXpCHo5bDOGybny6dR2XlZrluo8dbK0HOIJwCeFQYdV+geu0zlnjXl3XobPFB+BOLp8O53VCLesaLt91kL24DN3LRemYK/0M3Q2SeSjlX3qXw+OoEP/qnaqu3MlFXFdO2kvvY9pjnEibE0VP/vMbz0tpz7ROBKh7ueSMMEPejMWJejLt1tDNSB5o9fCsyHxCeieXssMZTY73V1wpZS/nO87d+sLTcKfoPnc6awBJPHdyUTipwPx3dCEFe1ciD8EsfQQDU1RS8AH8SIBSJU+LMWogj13wA1ygTmqTeliD6sw6CIvPWN7m5D/R2oOZklmI5rCCHVEK3OiuFEaG9Wy/dT8XjAkSufhuTemU2/XoqGCO1zlSsHdBq1XTfY9Uf2Sq1HqkPuusAXL37z2qwHjpS7mfS187ZNikAC4UAhpVpPijj1yoeofNcq/nWaSi5oLQ41oWGehAhuFCDnA5y1nuD9grKoURDY+B4KdYyTzkSFFzeILlRi6lyxIfNZIjyQL6T3BRYG1xfCyJcNafZB7q+akT5Ng0qPUSixKJq+NK9ge44Jp1H8DBIvdMB3vAyGiRRbjQqqEF6gFPTpAk2pom0gNwZWgkKTSYHK5I8DpNuo8LXqXV98YBlOX1AYBRrQO1Uyh9WocHfZ1qKXv5M5g4wbjXr6UDKeN2PAt1ljt+VDbrU3SJdOLNLwUo31A6+e+ZOirx9PgBPEGE7aKS9Z8l4VnKt5hsxD2L+GXZSy+9lFOidkbV52It2mc0az6Tq9Ios5kavGvX9BdMLPHnuUrZYtvXcFWMJZK6/WmwO7mENluGKo2Kx4XPfhhXeZDWVf71aK7yajZMaVQpABf7blaTElJYlUzMS1x3oR64LoxaRRCam+2WEgQBflYFY1fIgRlybQX8boTShPfV3Gw28I9wWxg8cH2cO0PURu0ldr+Saiw+xCGOukOqOUd/1TLu/05i8RxDaOLwfVliYQ+2pLZn2i1kf+USNmqJJR8OA4JtaOoARd0lpbXRQTmcvSQWG9Dq4odhRz1gF7a0HF0VofNxmUa5HA8fg+USvS6rlGawJ7EFcokbdZB8t8y2hdu5su9Ja7Pl1Kfg14irncllLk/ehrHQvJnLbCaFp5/5zkb3jBSjO2cvOLphh5INhzPqPstbnURcq+0oqQZsFObhkLD2+2w2a9sHEmyvU/9qaxs8zCV2ORw1tqPZivQor64JhhlcePYkVGqI1MYmg1YyPrRmpamZM7t84Ko0IOpsRd4YzrEWzTlpXn5UK6JYaX7MwvPzJvaz+dHeigIZqXKpETmf1gjBIBclCkIsfuHBFyszYq5DctVIYh/kHchLXB8hxPw4nYQonarh65CrEZoj5CrbDU3DQycuVKxhzil5gau5GRDXi4eQcCac5RqF3KXVcGuaWhWOPlbe2HqoJ9L1Khw8MoyDRKITFxftRVXUyAPZAZwtxmwraLckyqieUI20FuY7jqB2KvZEcTWbqzqPRVV4syVbbTdzR694vBeSqlIavvXyKhlxq6uLXJQ2LCXjGoR73+ReXF2I9+e42ItccGosB8ncBaPZ4kb/ysqPJrHMMjkKonrZXvAMs7FaQjPF2Fh7c1v8yuIKEyCb9NuNfdHvyUVNaj58t2GdE7ENrlotXMfVbAxOh1gzBhe5mqFzijA7mPO2GiWIUk7fv1RPmOE1t0fnqFTs8iWuJlkmzEgUhbFrYUQXyTeQx3pCTAnaJoyh9iYK1lVKPeahBFeYl01cNbKH17BKDDPoNl/mvmQvMcrpy7mJ0nDT3EbFVYqLXZkfSFp1GKaDj2bERQqMUs6C4my8R+vHqMQqsyosW0Yz9eDHBy4jKrHxH0Nb2GGdM1tUqppANVYh6G3+dSpcEhyKT3ZQOhbtMa7qMB6p4KwL5wUEtVV1tVLDIDuY/VTexlwipZ5WxXGuMC3F+piraKixwob3W/N2NhdVEVOrCGiHBJcwG5RTfVapdQe0lpp7kQu5ypkKI6EoDO3j+LHl5Qjbgz3YC7cn+piGHc9DsNJvC7lLCnGrZmtphB6hbY0li2f/ALp/pbqykVaHK8AQRd6CIn20jaGWBgMyfVi73bhh/QhdtypkqXqY2LBeXsyMdtuYbQS40m+i86sxfxGFw0MN8dBDbAxhl7Yxp6r5jXW1xGruJ8EVgTw9fhzUSy+99M+omL809Av7e9Fi/r72q7C/Ry7q77eL+nv3ou4PUNj9FIq6/0RR9+so7P4mRd0Ppqj75xTMw477DRV2f6ai7mdV2P2/3iYFcTGlm9wv7W2yLgKYsk7tL/f2FrjPB1PWwf9m/8LC7vf4VtT9Md8Ku5/oG9p/tfb7ZHrtL/uvIi9DPwD95f1q/fFf96vFo1nE/X1DNLQf8qNXSu6F/ZD/A6kPNS75yWWUAAAAAElFTkSuQmCC;" vertex="1" parent="3ekeltng3_tN8vzP2xMl-1">
                    <mxGeometry x="31.5" y="170.5" width="95.5" height="95.5" as="geometry"/>
                </mxCell>
                <mxCell id="3ekeltng3_tN8vzP2xMl-8" value="" style="shape=image;verticalLabelPosition=bottom;labelBackgroundColor=#ffffff;verticalAlign=top;aspect=fixed;imageAspect=0;image=data:image/png,iVBORw0KGgoAAAANSUhEUgAAAJcAAAA/CAMAAADaDqrIAAAAflBMVEX/////RB//Qhv/NgD/MQD/QBf/KwD/PA//PhP/+/r/8/H/zcf/6ef/OQb/5+T/ycP/IQD/wLn/mo7/7uz/0s3/eGb/jX//iHn/39v/2dX/oZb/sqn/fWz/VDj/ppz/raT/bVn/TCv/uLD/Z1L/k4b/YUr/g3L/cmD/WkD/TTLgTummAAAIaklEQVRogc1a6ZazOA4F29hAIIGQlVQWklSW93/B8SbJENLd802lenRO/QjCRpaurmS7ouj/S7J/24AxyXan5/5r9lafb+vzsT3s6kX+i1ZFxV6kjCm5HFNm51siBOe81H9CqOX5t2zL4jS2wr9edIub1DbHJCzlcrn4FbvmHD4qJwOrLlLFr5LK0/QX7CJ/qHX4vLkL70imdAS1lPBmKo4fNyuv0BHJJXh+rsAq0a3rbZMXi8OeXHv9tF3ZuF034R/y7kwkcoCnsTh82rCY4rjChxfvGVZde9TWkse2H7aLfICfyr5L70FuUyFD27InrCL5/rBd0cMbIRAzS++VJJ5G2eH+vX8+TquNVa0xQ6vNh+3K71IlaSnn8AA8yLjmA52VCWNJUgqr22Eg+edzcrK6nOa4/ClkgtSPFpgWlQ1mjXYFaPwduSQ+rsYhp6RPbmeya/3X0/y0bKUnT8MaG8o/x/Hz8sVfxfl2Oq0nbye0spjfT8vjm7ZlctXK3d/0NDePbG4CizBP704LztR6x2DTpeAankraF/JZHfBHNvG/Fk9RpknKVWA9vjrrnDINE2lTz5qeWcAEqWkvGgW0INyMDVUtV01bmYKdX1G2roSQ5c5P1VaCS5MeV+lHMWK9q3lVnaPoC5UCy+6i09rqUgR2Ff7LdoYjhJHtnRYfaEszQ3RIfjoxGlckmHSZepTu1/xOLyV7sNkr2wvNqO5gg7RRUXH+YhdLzI8OvOODlrFekc87ZDP9PDlBkYjtu1BIFHjULtc1SVj9yiRUeoed/AixI7t8HJVhs4VE5zjLV4j6WHNb3sEXWWlGwSdcKTgHrmQc3lSOvNtyTOlXP4GRIuyhHdS5jny0hAGp62UnaGfMtd0n9BavIyr/sajNy0/qJ1lZr1Roc9aRMmEz+I6nngt0Ml2Yorkw6zb+zqlyWoxPE5zN4CQorHUQcj8d+Vo7ZBvVUENsjGvyJSsLLCLJKQpH8n7PMo2FKmUT1BzGzPMNQywkvImmODc3TPZAu9x0J0KVyeW+XcQ2FlOQTa7RwpFywGh6r2Gr9DeM5q1ZBiezlFZ/QRSdf5BRmDJYLILENXYewpzYkC+FwcsVgmzswjJYvuk9ieuFNqMVlIq6zYi2vShGhC8HEmrUkof5DWxtCedKRcNSAzggNTsfQCJm51BwQ6LDvnjid5g4Gf8sYbhDMrmgMtNle+JfS+MAP/tpXJIBlxaY2yRrBiCGCvMi1ALe75LQE5+j0Nu+EmA9d2YS6l00KDiHEPUWINECe/ZzMJF4U3G3BIIEMczF1TEZ1m9fCSBOniSwrrLElrlj+DVEPSv7cxnXAuqhwrzIdbh3ZKkQc6gMHCvBuedcFpsgZ+Qu120+wBTdxU2ptTz0lCaBCvRd+8YuHu6zzSh2r1GJlMy4cy78dmEjrhfWXQXYaTLugPRTZr2x6itQiubVpEEY/YthG4Jx8nUFM8x2RxSp1J0tYNnhu4B+vC+xuBkIgNJR7IjMh2GUoV2Ybq5xwbriSKEZbrEwhbQXKHNdX5MB87E0jxrIDwfTaHsf7lOfgzDGIjgu2VD/47p+RIWdZtgeodrUWUS530bjy+oWlBjH9QVXVd0zi0gVhAcvIH58M42hccHe9wpFgHrTIOCCuetiEMcmIAAA3yh8p3349BpAmCbYl636rIBYdFlAqHexR3exZ4hbXvQ+ZCCANdd97Mpt3xLKPWzm0M0v2tJChGDeb759lLH3NsWQyMvGOMdOU84CFrQL2knqb73kOBcDExyko15gfEuD/ilb01hifXdLwVJpemDiett5Gpf46XWdmFEh0CxRy0GyRUEdYU9o2hhDRsH0Y48euuLyGOUPSmTLuQUBqA5bONuMbojoFlGDSsZyjQb2emqEhJMucYdNCUm0YFLqSE2efrsLAMANS2A7pU5RQ76MKwMv/K05tUlIyc8rYUcMBAHEzwMqt3Y9A7t6BJz2qoRB3xxBn+RbEewyKj3RGkOc6iCGQ7n2etK9bHWp9ZoWWIIJgxA5/WjKhkRHooroTJWyPsjw1SrsxNXsqs1KeqOD/STCHmjXJP6zz+1GsFdNVqw/WU/4mb4cx48+9QhtCv7o9qW249Kba3gMHQWxSW+vuyItO1ro0Fu937zsadJebeOqp1R8VgSQYGLkooO2JOfwyKsCxzahOSz8On+8DSuTp4V4p0zEsgk6oHGzKI4maaa4CmptrzRDmm4we/W+HjugcoiWrqZmdNBEJXI/CfMpVmr8+PbmJmCd+UGxEVgjASyJ+G70MtwbStdQ6IDUlba9eo8k9mYonKbxY0AnWvnwzmmFX8PlzW1PdrJZqyyiDrTnUBDJ7Etypbjc2+JbC/OD3xqiNrHJH1KpVJlLiefKLR9PIvNpJ0C5v5JvTnpIKbtd9FaOTArpijm1U5pScCGbdr1uYcZpu17tDFFCd8WEtn12vd1uq7aeeh6COmNqTlav+kon9Wo9n/z1Cd2mhhfoEDpOWZ9UBqdnWChGTzmhDSnnI8o/kCBPDLTRZflRSNlHAjCuqF9moU2k+KkbuXlIiZytZptiut0tFR8e42eEoNdZoNdk3Y/dYXZh0usE4mmp//TyZf/SEhF0GZkEiPDtTvq/l6kcpUs2vPADBPGxay0oHH7L+SMyESOG8W4IFEDQ2K0WUUjxqvxjmclhgU7kapjQhc9G9hxJdaSQ+AfN0qF8hsVDY+zyenEF8ErH7vChCKmfvlM9PqWyTkuUUF9juQ7I5mOEDRvH0Yr8P0k2Wz94JcvvdT1+egC7Cj52Bwg7suoj/+mQZdn7MpG7UDM1pvRHNW8PkD4pteWTN3e5O6sM96G/J7NYlmX1hqBqLlRZ/Ti8/pFks7Z9W/6yum3/6L7+P016dN1sVodjAAAAAElFTkSuQmCC;" vertex="1" parent="3ekeltng3_tN8vzP2xMl-1">
                    <mxGeometry x="98.18" y="63.5" width="124.63" height="52" as="geometry"/>
                </mxCell>
                <mxCell id="3ekeltng3_tN8vzP2xMl-11" value="" style="endArrow=classic;html=1;strokeWidth=2;shadow=1;rounded=1;sketch=0;labelBackgroundColor=none;labelBorderColor=#000000;jumpStyle=none;fillColor=#f5f5f5;strokeColor=#E6E6E6;" edge="1" parent="3ekeltng3_tN8vzP2xMl-1">
                    <mxGeometry width="50" height="50" relative="1" as="geometry">
                        <mxPoint x="312.8" y="135" as="sourcePoint"/>
                        <mxPoint x="279" y="178" as="targetPoint"/>
                    </mxGeometry>
                </mxCell>
                <mxCell id="3ekeltng3_tN8vzP2xMl-12" value="" style="endArrow=classic;html=1;strokeWidth=2;shadow=1;rounded=1;sketch=0;labelBackgroundColor=none;labelBorderColor=#000000;jumpStyle=none;fillColor=#f5f5f5;strokeColor=#E6E6E6;" edge="1" parent="3ekeltng3_tN8vzP2xMl-1">
                    <mxGeometry width="50" height="50" relative="1" as="geometry">
                        <mxPoint x="178" y="130" as="sourcePoint"/>
                        <mxPoint x="216" y="174" as="targetPoint"/>
                    </mxGeometry>
                </mxCell>
                <mxCell id="3ekeltng3_tN8vzP2xMl-13" value="" style="endArrow=classic;html=1;strokeWidth=2;shadow=1;rounded=1;sketch=0;labelBackgroundColor=none;labelBorderColor=#000000;jumpStyle=none;fillColor=#f5f5f5;strokeColor=#E6E6E6;" edge="1" parent="3ekeltng3_tN8vzP2xMl-1">
                    <mxGeometry width="50" height="50" relative="1" as="geometry">
                        <mxPoint x="138" y="219" as="sourcePoint"/>
                        <mxPoint x="187" y="219" as="targetPoint"/>
                    </mxGeometry>
                </mxCell>
            </root>
        </mxGraphModel>
    </diagram>
    <diagram id="pC8hNAoTifcPAbxlPXwS" name="MacroFlow">
        <mxGraphModel dx="820" dy="491" grid="0" gridSize="10" guides="1" tooltips="1" connect="1" arrows="1" fold="1" page="1" pageScale="1" pageWidth="850" pageHeight="1100" math="0" shadow="0">
            <root>
                <mxCell id="i4kkifrw7QdXic6nfPGE-0"/>
                <mxCell id="i4kkifrw7QdXic6nfPGE-1" parent="i4kkifrw7QdXic6nfPGE-0"/>
                <mxCell id="H0-8HcLb5ySB-28GzR74-4" value="outputs" style="edgeStyle=none;rounded=1;sketch=0;jumpStyle=none;orthogonalLoop=1;jettySize=auto;html=1;entryX=0;entryY=0.5;entryDx=0;entryDy=0;shadow=0;labelBackgroundColor=none;strokeWidth=1;" edge="1" parent="i4kkifrw7QdXic6nfPGE-1" source="i4kkifrw7QdXic6nfPGE-2" target="i4kkifrw7QdXic6nfPGE-3">
                    <mxGeometry x="-0.1429" y="10" relative="1" as="geometry">
                        <mxPoint as="offset"/>
                    </mxGeometry>
                </mxCell>
                <mxCell id="i4kkifrw7QdXic6nfPGE-2" value="Process" style="ellipse;whiteSpace=wrap;html=1;rounded=1;fillColor=#f8cecc;strokeColor=#b85450;" vertex="1" parent="i4kkifrw7QdXic6nfPGE-1">
                    <mxGeometry x="170" y="130" width="80" height="80" as="geometry"/>
                </mxCell>
                <mxCell id="H0-8HcLb5ySB-28GzR74-5" style="edgeStyle=none;rounded=1;sketch=0;jumpStyle=none;orthogonalLoop=1;jettySize=auto;html=1;shadow=0;labelBackgroundColor=none;strokeWidth=1;" edge="1" parent="i4kkifrw7QdXic6nfPGE-1" source="i4kkifrw7QdXic6nfPGE-3" target="rDS7vh1_qaQNWQ_N42ZU-0">
                    <mxGeometry relative="1" as="geometry"/>
                </mxCell>
                <mxCell id="i4kkifrw7QdXic6nfPGE-3" value="Mimic Standard" style="shape=hexagon;perimeter=hexagonPerimeter2;whiteSpace=wrap;html=1;fixedSize=1;rounded=0;fillColor=#d5e8d4;strokeColor=#82b366;" vertex="1" parent="i4kkifrw7QdXic6nfPGE-1">
                    <mxGeometry x="320" y="150" width="150" height="40" as="geometry"/>
                </mxCell>
                <mxCell id="rDS7vh1_qaQNWQ_N42ZU-0" value="" style="shape=image;imageAspect=0;aspect=fixed;verticalLabelPosition=bottom;verticalAlign=top;image=https://media-exp1.licdn.com/dms/image/C560BAQG4o8_wm_RFJg/company-logo_200_200/0/1609860108272?e=1628121600&amp;v=beta&amp;t=UN3Ccs5jaMUtjpFMSXfqNuETMFFadim6-J08MsScSFk;" vertex="1" parent="i4kkifrw7QdXic6nfPGE-1">
                    <mxGeometry x="540" y="110" width="120" height="120" as="geometry"/>
                </mxCell>
                <mxCell id="H0-8HcLb5ySB-28GzR74-2" style="edgeStyle=none;rounded=1;sketch=0;jumpStyle=none;orthogonalLoop=1;jettySize=auto;html=1;entryX=0;entryY=0.5;entryDx=0;entryDy=0;shadow=0;labelBackgroundColor=none;strokeWidth=1;" edge="1" parent="i4kkifrw7QdXic6nfPGE-1" source="P7qM86uBeswrgzYz1wNC-0" target="i4kkifrw7QdXic6nfPGE-2">
                    <mxGeometry relative="1" as="geometry"/>
                </mxCell>
                <mxCell id="P7qM86uBeswrgzYz1wNC-0" value="" style="shape=image;verticalLabelPosition=bottom;labelBackgroundColor=#ffffff;verticalAlign=top;aspect=fixed;imageAspect=0;image=data:image/png,iVBORw0KGgoAAAANSUhEUgAAAJcAAACXCAMAAAAvQTlLAAAAt1BMVEUUIygGwWf////28OoAAAAFx2oFxGj/+vP69O4UHSYUGCUUFyUAAAQUHycAChT99/GNjowSQTK2s7AAFh0UGyYKoVkAAAwOfkqIhoUUDCMFGiBGS02Zl5RdX18EzWwQYz8PcUUVACESRzXJxL8NiU8Is2Hh4uIoMja9wMAVAB3Mzc2goqPu7u9TVVY8QkR7f4Ha1tERVzsRTjgTMSwJql0MlVQ3ODcTKysTOzBjaGsgJShycG4MFBiTOdgJAAAKHUlEQVR4nO2ca3uiPBCGsYCgSFAQFTyBFLBFKZ617v//XW8OoIDoitbKe63PfigagjeTycwE11BvmXI+va++71KPlOv3v7xPJxuAyoLq9V2GAcpDqZAUwDBuv5eFdsI1+ZwyQH840lE6YKafk79xjafM4+2UlsJMxxe5nC7zm6Y6Sme6znku7/v3bRVJ+fbOcE12zNOokJjdJItrMm09FYuiWtPJKZfjP28MIym+k+aa+ODZVFDAnyS5JtPnWwtJiYYy5No927citXZxLu+5MzEuxjtyOd/Pponp2zlwdYvhXERKN+IaF2cUkZgx4ZpMn5MTz0lHcxJyjWvPJkmpNsZchfIuJORh1JtTLO9CYhzI1StCAkoK9CBXv1hej6T33yjnsYue2+Q61Gfx3As62CdVoNR4FONRX8Vze+j4HWpXtOiFpOwo/9kMmSom1UsvvZSUjpT9dvLgl9X1fb97ktN9LHjgdrOaHy69GzhQ6VV4S6Ydh/ZaMFHgg1/PYXqX5uG/foqrJvM0Lck1CtQ5mubkZ3AhZXLxEZf04npx/ctcF2Psj4bf67l0wAAYZCmGUU4BlBqjuK7OxL9BUWpQqGOLge8/iEsHUy/gkKSg46cedLTcL4tGbfRnpxu1KXsLyquBvhzQvJfzOeWVXMwfmZZ4fCrNS04v/h2OznQcKWzkJbrXIiYDHY7nuTGDO3Jezmc213F5e1qiY+KC7mFgFD/gEm0OaQMdCd2RjBsfw8XDgUDGwOOIDcPTEZjSDRAyjxt51CiRbIu5aIcmjQ/hosnHyZ2p3+9ZhJEnX0/oa2xJKZB33e5eJoz0Wo+4cMfACjo5Hf86LjQSY58Biq7UlL2DSaw/6ERmjF5w8roGdAUw6zGH22pHLs7zdZAxhX+Gi+8cvhhUahZmqcMpptQx49fhGQPzhe27VyIufnfTN4pXcvFx/9C/A9TqQC6Ajrj4ow9GRu5utUIuSb7ti4wr/StIXF2ZYr/pAGWKZ0XiW4E1RnUje3VvywLXcXH7pNsyFm4GjIeiSI8BMTEe5OG+AOZK3dAPc/F06upgh+3kMnhAvXpCHo5bDOGybny6dR2XlZrluo8dbK0HOIJwCeFQYdV+geu0zlnjXl3XobPFB+BOLp8O53VCLesaLt91kL24DN3LRemYK/0M3Q2SeSjlX3qXw+OoEP/qnaqu3MlFXFdO2kvvY9pjnEibE0VP/vMbz0tpz7ROBKh7ueSMMEPejMWJejLt1tDNSB5o9fCsyHxCeieXssMZTY73V1wpZS/nO87d+sLTcKfoPnc6awBJPHdyUTipwPx3dCEFe1ciD8EsfQQDU1RS8AH8SIBSJU+LMWogj13wA1ygTmqTeliD6sw6CIvPWN7m5D/R2oOZklmI5rCCHVEK3OiuFEaG9Wy/dT8XjAkSufhuTemU2/XoqGCO1zlSsHdBq1XTfY9Uf2Sq1HqkPuusAXL37z2qwHjpS7mfS187ZNikAC4UAhpVpPijj1yoeofNcq/nWaSi5oLQ41oWGehAhuFCDnA5y1nuD9grKoURDY+B4KdYyTzkSFFzeILlRi6lyxIfNZIjyQL6T3BRYG1xfCyJcNafZB7q+akT5Ng0qPUSixKJq+NK9ge44Jp1H8DBIvdMB3vAyGiRRbjQqqEF6gFPTpAk2pom0gNwZWgkKTSYHK5I8DpNuo8LXqXV98YBlOX1AYBRrQO1Uyh9WocHfZ1qKXv5M5g4wbjXr6UDKeN2PAt1ljt+VDbrU3SJdOLNLwUo31A6+e+ZOirx9PgBPEGE7aKS9Z8l4VnKt5hsxD2L+GXZSy+9lFOidkbV52It2mc0az6Tq9Ios5kavGvX9BdMLPHnuUrZYtvXcFWMJZK6/WmwO7mENluGKo2Kx4XPfhhXeZDWVf71aK7yajZMaVQpABf7blaTElJYlUzMS1x3oR64LoxaRRCam+2WEgQBflYFY1fIgRlybQX8boTShPfV3Gw28I9wWxg8cH2cO0PURu0ldr+Saiw+xCGOukOqOUd/1TLu/05i8RxDaOLwfVliYQ+2pLZn2i1kf+USNmqJJR8OA4JtaOoARd0lpbXRQTmcvSQWG9Dq4odhRz1gF7a0HF0VofNxmUa5HA8fg+USvS6rlGawJ7EFcokbdZB8t8y2hdu5su9Ja7Pl1Kfg14irncllLk/ehrHQvJnLbCaFp5/5zkb3jBSjO2cvOLphh5INhzPqPstbnURcq+0oqQZsFObhkLD2+2w2a9sHEmyvU/9qaxs8zCV2ORw1tqPZivQor64JhhlcePYkVGqI1MYmg1YyPrRmpamZM7t84Ko0IOpsRd4YzrEWzTlpXn5UK6JYaX7MwvPzJvaz+dHeigIZqXKpETmf1gjBIBclCkIsfuHBFyszYq5DctVIYh/kHchLXB8hxPw4nYQonarh65CrEZoj5CrbDU3DQycuVKxhzil5gau5GRDXi4eQcCac5RqF3KXVcGuaWhWOPlbe2HqoJ9L1Khw8MoyDRKITFxftRVXUyAPZAZwtxmwraLckyqieUI20FuY7jqB2KvZEcTWbqzqPRVV4syVbbTdzR694vBeSqlIavvXyKhlxq6uLXJQ2LCXjGoR73+ReXF2I9+e42ItccGosB8ncBaPZ4kb/ysqPJrHMMjkKonrZXvAMs7FaQjPF2Fh7c1v8yuIKEyCb9NuNfdHvyUVNaj58t2GdE7ENrlotXMfVbAxOh1gzBhe5mqFzijA7mPO2GiWIUk7fv1RPmOE1t0fnqFTs8iWuJlkmzEgUhbFrYUQXyTeQx3pCTAnaJoyh9iYK1lVKPeahBFeYl01cNbKH17BKDDPoNl/mvmQvMcrpy7mJ0nDT3EbFVYqLXZkfSFp1GKaDj2bERQqMUs6C4my8R+vHqMQqsyosW0Yz9eDHBy4jKrHxH0Nb2GGdM1tUqppANVYh6G3+dSpcEhyKT3ZQOhbtMa7qMB6p4KwL5wUEtVV1tVLDIDuY/VTexlwipZ5WxXGuMC3F+piraKixwob3W/N2NhdVEVOrCGiHBJcwG5RTfVapdQe0lpp7kQu5ypkKI6EoDO3j+LHl5Qjbgz3YC7cn+piGHc9DsNJvC7lLCnGrZmtphB6hbY0li2f/ALp/pbqykVaHK8AQRd6CIn20jaGWBgMyfVi73bhh/QhdtypkqXqY2LBeXsyMdtuYbQS40m+i86sxfxGFw0MN8dBDbAxhl7Yxp6r5jXW1xGruJ8EVgTw9fhzUSy+99M+omL809Av7e9Fi/r72q7C/Ry7q77eL+nv3ou4PUNj9FIq6/0RR9+so7P4mRd0Ppqj75xTMw477DRV2f6ai7mdV2P2/3iYFcTGlm9wv7W2yLgKYsk7tL/f2FrjPB1PWwf9m/8LC7vf4VtT9Md8Ku5/oG9p/tfb7ZHrtL/uvIi9DPwD95f1q/fFf96vFo1nE/X1DNLQf8qNXSu6F/ZD/A6kPNS75yWWUAAAAAElFTkSuQmCC;" vertex="1" parent="i4kkifrw7QdXic6nfPGE-1">
                    <mxGeometry x="50" y="140" width="60" height="60" as="geometry"/>
                </mxCell>
                <mxCell id="H0-8HcLb5ySB-28GzR74-3" style="edgeStyle=none;rounded=1;sketch=0;jumpStyle=none;orthogonalLoop=1;jettySize=auto;html=1;entryX=0;entryY=0.313;entryDx=0;entryDy=0;entryPerimeter=0;shadow=0;labelBackgroundColor=none;strokeWidth=1;" edge="1" parent="i4kkifrw7QdXic6nfPGE-1" source="P7qM86uBeswrgzYz1wNC-1" target="i4kkifrw7QdXic6nfPGE-2">
                    <mxGeometry relative="1" as="geometry"/>
                </mxCell>
                <mxCell id="P7qM86uBeswrgzYz1wNC-1" value="" style="shape=image;verticalLabelPosition=bottom;labelBackgroundColor=#ffffff;verticalAlign=top;aspect=fixed;imageAspect=0;image=data:image/png,iVBORw0KGgoAAAANSUhEUgAAAJcAAAA/CAMAAADaDqrIAAAAflBMVEX/////RB//Qhv/NgD/MQD/QBf/KwD/PA//PhP/+/r/8/H/zcf/6ef/OQb/5+T/ycP/IQD/wLn/mo7/7uz/0s3/eGb/jX//iHn/39v/2dX/oZb/sqn/fWz/VDj/ppz/raT/bVn/TCv/uLD/Z1L/k4b/YUr/g3L/cmD/WkD/TTLgTummAAAIaklEQVRogc1a6ZazOA4F29hAIIGQlVQWklSW93/B8SbJENLd802lenRO/QjCRpaurmS7ouj/S7J/24AxyXan5/5r9lafb+vzsT3s6kX+i1ZFxV6kjCm5HFNm51siBOe81H9CqOX5t2zL4jS2wr9edIub1DbHJCzlcrn4FbvmHD4qJwOrLlLFr5LK0/QX7CJ/qHX4vLkL70imdAS1lPBmKo4fNyuv0BHJJXh+rsAq0a3rbZMXi8OeXHv9tF3ZuF034R/y7kwkcoCnsTh82rCY4rjChxfvGVZde9TWkse2H7aLfICfyr5L70FuUyFD27InrCL5/rBd0cMbIRAzS++VJJ5G2eH+vX8+TquNVa0xQ6vNh+3K71IlaSnn8AA8yLjmA52VCWNJUgqr22Eg+edzcrK6nOa4/ClkgtSPFpgWlQ1mjXYFaPwduSQ+rsYhp6RPbmeya/3X0/y0bKUnT8MaG8o/x/Hz8sVfxfl2Oq0nbye0spjfT8vjm7ZlctXK3d/0NDePbG4CizBP704LztR6x2DTpeAankraF/JZHfBHNvG/Fk9RpknKVWA9vjrrnDINE2lTz5qeWcAEqWkvGgW0INyMDVUtV01bmYKdX1G2roSQ5c5P1VaCS5MeV+lHMWK9q3lVnaPoC5UCy+6i09rqUgR2Ff7LdoYjhJHtnRYfaEszQ3RIfjoxGlckmHSZepTu1/xOLyV7sNkr2wvNqO5gg7RRUXH+YhdLzI8OvOODlrFekc87ZDP9PDlBkYjtu1BIFHjULtc1SVj9yiRUeoed/AixI7t8HJVhs4VE5zjLV4j6WHNb3sEXWWlGwSdcKTgHrmQc3lSOvNtyTOlXP4GRIuyhHdS5jny0hAGp62UnaGfMtd0n9BavIyr/sajNy0/qJ1lZr1Roc9aRMmEz+I6nngt0Ml2Yorkw6zb+zqlyWoxPE5zN4CQorHUQcj8d+Vo7ZBvVUENsjGvyJSsLLCLJKQpH8n7PMo2FKmUT1BzGzPMNQywkvImmODc3TPZAu9x0J0KVyeW+XcQ2FlOQTa7RwpFywGh6r2Gr9DeM5q1ZBiezlFZ/QRSdf5BRmDJYLILENXYewpzYkC+FwcsVgmzswjJYvuk9ieuFNqMVlIq6zYi2vShGhC8HEmrUkof5DWxtCedKRcNSAzggNTsfQCJm51BwQ6LDvnjid5g4Gf8sYbhDMrmgMtNle+JfS+MAP/tpXJIBlxaY2yRrBiCGCvMi1ALe75LQE5+j0Nu+EmA9d2YS6l00KDiHEPUWINECe/ZzMJF4U3G3BIIEMczF1TEZ1m9fCSBOniSwrrLElrlj+DVEPSv7cxnXAuqhwrzIdbh3ZKkQc6gMHCvBuedcFpsgZ+Qu120+wBTdxU2ptTz0lCaBCvRd+8YuHu6zzSh2r1GJlMy4cy78dmEjrhfWXQXYaTLugPRTZr2x6itQiubVpEEY/YthG4Jx8nUFM8x2RxSp1J0tYNnhu4B+vC+xuBkIgNJR7IjMh2GUoV2Ybq5xwbriSKEZbrEwhbQXKHNdX5MB87E0jxrIDwfTaHsf7lOfgzDGIjgu2VD/47p+RIWdZtgeodrUWUS530bjy+oWlBjH9QVXVd0zi0gVhAcvIH58M42hccHe9wpFgHrTIOCCuetiEMcmIAAA3yh8p3349BpAmCbYl636rIBYdFlAqHexR3exZ4hbXvQ+ZCCANdd97Mpt3xLKPWzm0M0v2tJChGDeb759lLH3NsWQyMvGOMdOU84CFrQL2knqb73kOBcDExyko15gfEuD/ilb01hifXdLwVJpemDiett5Gpf46XWdmFEh0CxRy0GyRUEdYU9o2hhDRsH0Y48euuLyGOUPSmTLuQUBqA5bONuMbojoFlGDSsZyjQb2emqEhJMucYdNCUm0YFLqSE2efrsLAMANS2A7pU5RQ76MKwMv/K05tUlIyc8rYUcMBAHEzwMqt3Y9A7t6BJz2qoRB3xxBn+RbEewyKj3RGkOc6iCGQ7n2etK9bHWp9ZoWWIIJgxA5/WjKhkRHooroTJWyPsjw1SrsxNXsqs1KeqOD/STCHmjXJP6zz+1GsFdNVqw/WU/4mb4cx48+9QhtCv7o9qW249Kba3gMHQWxSW+vuyItO1ro0Fu937zsadJebeOqp1R8VgSQYGLkooO2JOfwyKsCxzahOSz8On+8DSuTp4V4p0zEsgk6oHGzKI4maaa4CmptrzRDmm4we/W+HjugcoiWrqZmdNBEJXI/CfMpVmr8+PbmJmCd+UGxEVgjASyJ+G70MtwbStdQ6IDUlba9eo8k9mYonKbxY0AnWvnwzmmFX8PlzW1PdrJZqyyiDrTnUBDJ7Etypbjc2+JbC/OD3xqiNrHJH1KpVJlLiefKLR9PIvNpJ0C5v5JvTnpIKbtd9FaOTArpijm1U5pScCGbdr1uYcZpu17tDFFCd8WEtn12vd1uq7aeeh6COmNqTlav+kon9Wo9n/z1Cd2mhhfoEDpOWZ9UBqdnWChGTzmhDSnnI8o/kCBPDLTRZflRSNlHAjCuqF9moU2k+KkbuXlIiZytZptiut0tFR8e42eEoNdZoNdk3Y/dYXZh0usE4mmp//TyZf/SEhF0GZkEiPDtTvq/l6kcpUs2vPADBPGxay0oHH7L+SMyESOG8W4IFEDQ2K0WUUjxqvxjmclhgU7kapjQhc9G9hxJdaSQ+AfN0qF8hsVDY+zyenEF8ErH7vChCKmfvlM9PqWyTkuUUF9juQ7I5mOEDRvH0Yr8P0k2Wz94JcvvdT1+egC7Cj52Bwg7suoj/+mQZdn7MpG7UDM1pvRHNW8PkD4pteWTN3e5O6sM96G/J7NYlmX1hqBqLlRZ/Ti8/pFks7Z9W/6yum3/6L7+P016dN1sVodjAAAAAElFTkSuQmCC;" vertex="1" parent="i4kkifrw7QdXic6nfPGE-1">
                    <mxGeometry x="50" y="78" width="76.7" height="32" as="geometry"/>
                </mxCell>
                <mxCell id="H0-8HcLb5ySB-28GzR74-1" style="rounded=1;sketch=0;jumpStyle=none;orthogonalLoop=1;jettySize=auto;html=1;shadow=0;labelBackgroundColor=none;strokeWidth=1;" edge="1" parent="i4kkifrw7QdXic6nfPGE-1" source="H0-8HcLb5ySB-28GzR74-0" target="i4kkifrw7QdXic6nfPGE-2">
                    <mxGeometry relative="1" as="geometry"/>
                </mxCell>
                <mxCell id="H0-8HcLb5ySB-28GzR74-0" value="" style="shape=image;verticalLabelPosition=bottom;labelBackgroundColor=#ffffff;verticalAlign=top;aspect=fixed;imageAspect=0;image=data:image/png,iVBORw0KGgoAAAANSUhEUgAAAHsAAABFCAYAAABqt5miAAARk0lEQVR4Xu1deXRU5RX/vZlkJuvMZBk0tLFYStXWKkdaxB1RyiabBalIqWUTFKuCFbELIBXUNiIKiAYURFEL0eBCWIIeq+ByCoVqEe2hQmPBZp2ZJJPM+nru9+Y9Z3nbbE5i8s7xD8l733J/393v/YbjeZ5H79MjKMD1gt0jcGab7AW752AdH9i+Tz+D76N/gsvOUieRyYScYUPBmc2apOQ9HviOfYpgYwP4NjdgMsFgs8FYdiay+n1H8/veF/RTIC7Odi27Hx1Ll4CDVXEGHk6YZt8C2+OrFcGmQ+N59wA6llUgWPexNBaNS9+HP8ZLhyN3/kzkjhkFg8Wif2ff8DeDLheaR01C8MBBAHkyu3XDcOkgFO94AYbSkvjEOHFgy00zENj7PmCVG1yYj69zILfibhQuuCNmAbTAtnXr4XlsE/jTp8DZzwRystVhcbrBDeiLote2MW7vfQQKBBub0GAvhaHsPFmS8KdbYVowDdYVSyWm083ZBFSD1QpD+fmq9CawC6vXIXf82Ij3vEf+gZaBF4JDH3BlJUCWUR9unT5kTRiKoqfW63u/h7zlee8DOC4doogHX9eEvI3LUTBj5leSU681TqK3+dxzNMGG0w3bhzXIPuf70iS0MOelk8DZ85U5udMXCVOWQTgQTjdMt02FdcXyHgKjvm22bdwE96w7wZWXy3M2Md3ODcgdNSJ+sNtfeAntU29RHJyN6A8A7R7YncelCaRDQuJGjpudbvau8YqLwBXbBFXgdiN4ugHBA0fAox6WnbsiFq2PHN/st5on3aSsUgkHAMUH34xQfbrFuOP2hfA9W62qr9HpAzfgLJTu3yPoFZcLLTfchOChf8lyNIl8w6B+sD6/EcaSEnCFBQLYHg/4djcC9fXw7HsLuddP6LXMo85u44+vAH+qSZ6BCGyrCfZPDkd8pRts1cFDQ/J19cituE8yzlwPPozOxSvkpUGnD4aLBqDoL8/3WtlxCiH/iZNoGTUecHoVpWXW+GEoerYyfrBp8Kaz++lakrW2FjnXXMO4Ws2go4ORt+EhFMy8Wde4vS99RYHOffvQev0cRSnL19Uhb8OjMbTVxdkkVoPNLbroLbpHAldXgCvvI/sd+delp073ulO6qBr5UtvTG+GeeZ8qbYsOH4Hpwgvi5+wE1oOmkWMVdTXT53Uf44zeHEwipIXzvt/Ds3ITuHLBoI1+SGqWnDoSw0iqnE2Ou3vHa6oLMlityJs0ESTqO3fuBswmBBvq4Vm3Rfk7fwCczYK8+xch6IyMmMHjRe7EcYocL4ZXfUc/gbemFv7a/Qie/iRiLoq6mcZei5xRI5F1dr+kbAKaj/ZGYWLv2+/CV1UTO995F8M0/XqYr7oK2QO+J0WsEkFSnI8ijL6397P9kYdD3orh7LNgPPsseKreAP/5F4r62jh8CGxPPxGzb1WwSTc4r71WMTxKoc3cpctgWfIHtK17Cu233RJ6Nw9cuRCiU3z8ARZFi3yM4NEMu9MpCxC5fwSwb8vL7D2D5btAvjl20043eJeDvZM1YSLy5tySkOvWUbMbna+8Al/lG+DxBTh8G1xZYex8nT7wDS3MTcweMwmm0cNRcOucuLEmN7V9/RPwPrqdzSftj0Zq94B3eQF4VYNS5OHkLJ3NMIl+VMEWHPdFqrrBduB9mC+5GC3TZ8O/401110xr++wA/A99+KaIN5lBMn8h+GN14Cy2+Obo9CHY8CmL11v//LAuLqdon3PGLPCHPgNnKYl7Pr7hSxhHXAHr+jW6XEYyZl2/XQbPmkcEgFXC0VoklIucid+ogk2Jj86llYq6IdzI0tLRWotkf3e6kTVluBQaJZHWtnY93AvvhMF+jnYcXWUSslDNi2/XjMS1PrIaHQvvj/9QRc0txhBK//aOuoA7cRLOufMR2H0AXHlfXWRSfcnphmXXVsaAujmbTptj6kwE3jkkf9JCAZTimu0InP4SLecOBY/T4FCsvWinG0HXv2XXXLD1ReTfOIW5bs3DxiB48Kj2eDpJRIDnb32SjR/90MFyzJ4P35Zt6lFCnXPRa2QomRfPUTxgYr4gWW6WlhQKppS8s0/WblDkbDLOGu0/UBThxIXZs26ArWIly8B4jwjRmkB9o3pYNcS9uVMmxxLc64f5Jz8GTNlwzJgHf9Vb2ro/DuLTmsnQKap6Lib9SmrIt+VV5f3GM4/4bsgQte18KUack352TLgBaOpMSmJFLIvALiuA/eCHsqtVBFs6dQpZLhYU2bgiIqtCM3TseA2uCeNUszGF1U/GZMXCV9c08XoEqt9PLdChCeT8ewoFe9dsTBlHh++F5hMDTeK/C4zUX1+KN45DRqqD0prEgHKPItiJZFVoAsfCxfA+8pyKD1iHomMfRmTFwhdGAYP2mbO0s2txECGa+OEBB7K4W0dPTy1Hh00YHc0S1UXSxqzM/tXUFL2uCLaqdU3iIssI296qGNCIK4P7jyqKJrVgCrOCr5yYlDWqdQZoftGDIFujqe8PwZWdoT+/rjVB1N/5ulPIW7tScsUEA3BJ2qRIyecnFD0ARbAbBg0GTrcpZ1VkdAMz1MZOVs7GRGXFoulGFn1g92FFqRAnnWVfJ7CLj33KDqkghTanRV2IkzPO3ljB1B3Rp7FvWXqkFjGgP4iSo/sVgzqyYNOimi8eLuSnFXLQFKUp3v58BEGpSME1/peKXE16PmflQljuvScGCK3Ki1QATWMQ2BS08X9+As7hN6TOOFJYYLgkcdx1F3xPv5oeyUWG7/hhsFWuUaz9kwVbO6sSKZrEfbq3v4K2yb9SFFFyxor4ra58ebKIh7mL7RueQcdCSr/KJ2qSnUr6PlS5Q//fcu4lKXMjo9dHwZSclXfKMpL4rizYgnFGWRX5kGf4aQ2fVMh0Par4HemvomPvxeh5ckOcE6eDd7jSpjtpnSJBCm6di6aLr1TOB6cK6U4fjFcOYhKwZc5cFnZVSl4kOyXtLX/rKtkYgirY8UTOJN1E1ac/m6YahGHFCs9titEpZBG7Ro9Mjy6LsIwdsNRugvHb5frq6ZJEILyY438cl979+QOw1rwYk9YM30IMZ0uRsw8/ktdnYaIwvI5bq1iBBWFmjIP1wQdjdIqQsiM/VyN5kgzxad0/Kkfpvr0saeO+bXHaRKq4TNE+6HijBu1Tf50+lREKppS8Vasa+48BW3JHFOK0ouMeXo9Mm9OqPlWrJ2+87KfgPz6eHsMlRHkivKX6VRbMSUnSRuPgEVeb5k+D7fEKpNUwo3WEHWS1ZcWAnWjkTDsIU4/Cnc/KphrrORu4sr7p09dRYdLGa4aD/6gufZZ4KEZdVLMDhoICtEy7WbWQIxmBJdkiS+fKpjVVxbg2aLH1yMzSnDMX/pf2qtRFnULx54dkHf506zMyXmyHd0n6LN1gkxQp3PayVNShWhyYLNIhd1JPuXUMZ2tGzqwm0IkNb7qjEGDz+Emqp5cs8eg8tbjPxh8MAd/oSAunEeHzNzwTUXzXfN1kZUMySeLTwcr+xRipspMkpWPgyLTaI3rr+WLAbjhvoLJLopBVobIdx6RpypGzkBgtfn2bLCkF639tyg0YpRy2YKDdk/KQJdklWWOGwLZ1o2QoJQ02NVHIVeOIlCR9XWpD8ft7NAszIsBm9ciDRyhzGIGmFDkbOVVVhIfHh6MRF9qDRqfUOiagTQvmyWaA0hG2JI42DOqPkv21Ed4GY4TRUxKKIYhSInD8pGrNGRV8qHXNyvrZiUbOtFqDSMzIlbaGgy7EqZ9KHnBWD/YlclbepxpNSmVCgvZnnr8AlgeWxHBXolkukhLGEQNhe6YSzcNGKkpblmpeu1xXzVsEZycaOdMqbSUfu+jIm5r1WNR1Ejz4WWLinNWvOZhutLy0QbYsJ1qiSHnsBD0B4jzObkHuyntVmx3iDRqRfWOccBWKKivh/+9/WferUvesUtesnL6MAFsCjSooZR4q2bU3NEZEwOjkNg0bC/5f/1EMwhgH/wi2Tes1S2zF/u2OxYvAoQxcmU3dHQtleqigkEp7clcuQt60n2vqrvCtiQEW+jddqU4mORqoJofVtOXPmaV5iJm3Mn02vFs2KEfRQocVcDOpVHjXHUwdSPYFHcjoxx8EsgywvVWtWB8g63qxyNmMeQgc+DtrCot5nF4YLugf05ulJ3IWb8stK6l96hn4dtawsh2+wcWI+9VjBGfJBfoWgutrR968W5Ez9ErNw6RkaJMOb9/8LDzbtgN1LvAN7axkN4JQlgJmKHF9S2CeOgl5N06Jq5uF6NT64J9Ycb+wF3E/JqGVuSQH2aNHofDuOyLGZd2aSpi0B8ANOBPFr1TpOuARnE3lMqqPKTtmUO0gjAN5a3+vS6dEzx3eEMC7OwBOIBCXWwBjn1KYLhyYMMBK+6T9BE6cRIBoEZoPvBFZ/cpZTD287zwRL43GpwYHvqONfW6wFCNrQH9kn3uObGqSDiKXrX47hXiNhtZ6dPV6qQ2iFWcmvWap3cKa/XqfzFIgabC14sxKfUeZ3XbPnD0psJlxNvo61TgzcXYfPrrNp2cSO9O7TgpszaKDUKlMdFN4pjfdU+dPCmypDNdeJEs/comi49I9ldBdYd9JgU2Rs47lq4Ai+cvo+OZ62Kr/ImvBkgrQcwPi10Ekcovg9bFOlGQe2k9X2ZPcPpICWyKSAoV4nw+G4iJZAlDyQ66tNBliJ/ot7cN59z0IHD8OLjsn0WFgWV2RtGuW8OQ6PkwKbB3jK75CsWlD2ZmqBXLJjB/vtyRpWletBkXvWMdoPI/Hx3rI9EQJ4xk21e9mDGzW2HbFONWi9lRvVs94Qjn0bUKETm+fdKi+zrZqlZ4pMvZOxsCmHVOFCjXJd7WrKukguu5YiOB7R3UBrlZflzFkZSbOKNgkyqnRXizh6UqE0bqwL3ytlDu3HtitK9OWyT1mFGyxRzl47AjEJvxMEkOcm/S3a9kfVW8kCl+nWDLc1a/IzijYRDAhp/wCKLVnqa3KeAydEg+uJUvhq3xRX9mSP8BuT+oO13xlHGwpRVp2HiNa/tonE8qQJSsRiJs7d+0RLhKI5xIbMs6mT2D14V39yTjYRCDxWi2qxiCRmLP4dyi89ze6crSpIDClHduWPwR/1S59BQxhkypdHZmKdaV6jC4BdnSdFiVP6DIeup7CfPnlaYlK0ZzeQ4fR/sCf4Xtje3zcHIaCnvq6VIOW6HhdAmxavPQzCOIVWKE70agWq+CeRSmzdEltuLe9DG/NXvirasFRBYpef5oWSpfgiz91oXJBTqKApPO7LgM2bZJZ54NHRRI/dGkd/VhM3tqHYbpsCIx9+ugqCRIv2KV7y6k6pHPzc/Dvfl24vstuj68pgR2+Jta/5dsh3KfO7m0bPwzWNRVfm8pJ5jB0KbBpI1KZU/Qld9L1l2YYRwyG4axvwVBqZ6VChj526eengm43AidPgne1sp+PCvzz3+wXCQBP/LcVipQN3dtGLTbmyy756sJ8jw/mBb/sMjF+rYPQ5cAWAXf+fDpwqlXxwj14hN8U4V0dzG0TfyJK+BmqQnAWE2DOZtWXun98JppaIVWSPXsyrCsekOrdxEsHqGgwf+tjXSa+3y3BpkWL97qQtav0oydam0v47yGQ6aJbavPNGfnTCCNRbE+mg2U7/FfVBviE15CGD7skZ4fvkxoXOhYsZzfypuuKCmm+UIDEOOhy5MybqVr4T82IgU8+6BbBFHF/XR5sUay3r10Hb+WTytdAJ8oJZF17fOwuVWpMoHtJcoZepWkAit0z3am+rluALeJITXLuzZvh3fMuggfofk4zOCqJ0vrVv/CDwER0KwD6Lw/GEYNg/OH5yJt+Y1zimAzJzurqbmOcEQm6FdgiZqTPCXjPnt3wvrYXgYPvxvC13O96sg2jDNmzx8F09dXI6tcv4Zv/yV+nu9Sif4cjUQHzdXzXLcGWIwwFZagJjjpHgg4H4PWyX+zlTFmCi6bTN/86iJ6pOb4xYGeKgN1p3l6wuxNaSa61F+wkCdidPv8/g4KZudCy9KkAAAAASUVORK5CYII=;" vertex="1" parent="i4kkifrw7QdXic6nfPGE-1">
                    <mxGeometry x="29.000000000000004" y="218" width="89" height="50" as="geometry"/>
                </mxCell>
            </root>
        </mxGraphModel>
    </diagram>
    <diagram name="MicroFlow" id="x2qNj_wucnta7HdXzOuQ">
        <mxGraphModel dx="820" dy="491" grid="0" gridSize="10" guides="1" tooltips="1" connect="1" arrows="1" fold="1" page="1" pageScale="1" pageWidth="850" pageHeight="1100" math="0" shadow="0">
            <root>
                <mxCell id="CiFOM2ui6DQVVok30smi-0"/>
                <mxCell id="CiFOM2ui6DQVVok30smi-1" parent="CiFOM2ui6DQVVok30smi-0"/>
                <mxCell id="CiFOM2ui6DQVVok30smi-2" value="produces" style="edgeStyle=orthogonalEdgeStyle;rounded=1;sketch=0;jumpStyle=none;orthogonalLoop=1;jettySize=auto;html=1;entryX=0;entryY=0.5;entryDx=0;entryDy=0;shadow=0;labelBackgroundColor=none;strokeWidth=1;" edge="1" parent="CiFOM2ui6DQVVok30smi-1" source="CiFOM2ui6DQVVok30smi-3" target="CiFOM2ui6DQVVok30smi-5">
                    <mxGeometry x="-0.1429" y="10" relative="1" as="geometry">
                        <mxPoint as="offset"/>
                    </mxGeometry>
                </mxCell>
                <mxCell id="CiFOM2ui6DQVVok30smi-13" value="API" style="edgeStyle=orthogonalEdgeStyle;rounded=1;sketch=0;jumpStyle=none;orthogonalLoop=1;jettySize=auto;html=1;entryX=1;entryY=0.5;entryDx=0;entryDy=0;shadow=0;labelBackgroundColor=none;strokeWidth=1;" edge="1" parent="CiFOM2ui6DQVVok30smi-1" source="CiFOM2ui6DQVVok30smi-3" target="CiFOM2ui6DQVVok30smi-8">
                    <mxGeometry x="-0.0112" y="-13" relative="1" as="geometry">
                        <mxPoint as="offset"/>
                    </mxGeometry>
                </mxCell>
                <mxCell id="CiFOM2ui6DQVVok30smi-3" value="Uber Adapter &lt;b&gt;Microservice&lt;/b&gt;" style="ellipse;whiteSpace=wrap;html=1;rounded=1;fillColor=#d5e8d4;strokeColor=#82b366;" vertex="1" parent="CiFOM2ui6DQVVok30smi-1">
                    <mxGeometry x="162" y="130" width="88" height="80" as="geometry"/>
                </mxCell>
                <mxCell id="CiFOM2ui6DQVVok30smi-4" value="consumed by" style="edgeStyle=orthogonalEdgeStyle;rounded=1;sketch=0;jumpStyle=none;orthogonalLoop=1;jettySize=auto;html=1;shadow=0;labelBackgroundColor=none;strokeWidth=1;" edge="1" parent="CiFOM2ui6DQVVok30smi-1" source="CiFOM2ui6DQVVok30smi-5" target="CiFOM2ui6DQVVok30smi-6">
                    <mxGeometry x="-0.0769" y="9" relative="1" as="geometry">
                        <mxPoint as="offset"/>
                    </mxGeometry>
                </mxCell>
                <mxCell id="CiFOM2ui6DQVVok30smi-5" value="New Normalized Order&lt;br&gt;&lt;b&gt;&amp;lt;Event&amp;gt;&lt;/b&gt;" style="shape=hexagon;perimeter=hexagonPerimeter2;whiteSpace=wrap;html=1;fixedSize=1;rounded=0;fillColor=#fff2cc;strokeColor=#d6b656;" vertex="1" parent="CiFOM2ui6DQVVok30smi-1">
                    <mxGeometry x="320" y="150" width="150" height="40" as="geometry"/>
                </mxCell>
                <mxCell id="CiFOM2ui6DQVVok30smi-17" value="produces" style="edgeStyle=orthogonalEdgeStyle;rounded=1;sketch=0;jumpStyle=none;orthogonalLoop=1;jettySize=auto;html=1;entryX=1;entryY=0.5;entryDx=0;entryDy=0;shadow=0;labelBackgroundColor=none;strokeWidth=1;" edge="1" parent="CiFOM2ui6DQVVok30smi-1" source="CiFOM2ui6DQVVok30smi-6" target="CiFOM2ui6DQVVok30smi-14">
                    <mxGeometry x="0.3077" y="-13" relative="1" as="geometry">
                        <Array as="points">
                            <mxPoint x="621" y="261"/>
                        </Array>
                        <mxPoint as="offset"/>
                    </mxGeometry>
                </mxCell>
                <mxCell id="CiFOM2ui6DQVVok30smi-6" value="MIMIC DOMAIN" style="shape=image;imageAspect=0;aspect=fixed;verticalLabelPosition=bottom;verticalAlign=top;image=https://media-exp1.licdn.com/dms/image/C560BAQG4o8_wm_RFJg/company-logo_200_200/0/1609860108272?e=1628121600&amp;v=beta&amp;t=UN3Ccs5jaMUtjpFMSXfqNuETMFFadim6-J08MsScSFk;fontStyle=1" vertex="1" parent="CiFOM2ui6DQVVok30smi-1">
                    <mxGeometry x="561" y="110" width="120" height="120" as="geometry"/>
                </mxCell>
                <mxCell id="CiFOM2ui6DQVVok30smi-8" value="" style="shape=image;verticalLabelPosition=bottom;labelBackgroundColor=#ffffff;verticalAlign=top;aspect=fixed;imageAspect=0;image=data:image/png,iVBORw0KGgoAAAANSUhEUgAAAJcAAACXCAMAAAAvQTlLAAAAt1BMVEUUIygGwWf////28OoAAAAFx2oFxGj/+vP69O4UHSYUGCUUFyUAAAQUHycAChT99/GNjowSQTK2s7AAFh0UGyYKoVkAAAwOfkqIhoUUDCMFGiBGS02Zl5RdX18EzWwQYz8PcUUVACESRzXJxL8NiU8Is2Hh4uIoMja9wMAVAB3Mzc2goqPu7u9TVVY8QkR7f4Ha1tERVzsRTjgTMSwJql0MlVQ3ODcTKysTOzBjaGsgJShycG4MFBiTOdgJAAAKHUlEQVR4nO2ca3uiPBCGsYCgSFAQFTyBFLBFKZ617v//XW8OoIDoitbKe63PfigagjeTycwE11BvmXI+va++71KPlOv3v7xPJxuAyoLq9V2GAcpDqZAUwDBuv5eFdsI1+ZwyQH840lE6YKafk79xjafM4+2UlsJMxxe5nC7zm6Y6Sme6znku7/v3bRVJ+fbOcE12zNOokJjdJItrMm09FYuiWtPJKZfjP28MIym+k+aa+ODZVFDAnyS5JtPnWwtJiYYy5No927citXZxLu+5MzEuxjtyOd/Pponp2zlwdYvhXERKN+IaF2cUkZgx4ZpMn5MTz0lHcxJyjWvPJkmpNsZchfIuJORh1JtTLO9CYhzI1StCAkoK9CBXv1hej6T33yjnsYue2+Q61Gfx3As62CdVoNR4FONRX8Vze+j4HWpXtOiFpOwo/9kMmSom1UsvvZSUjpT9dvLgl9X1fb97ktN9LHjgdrOaHy69GzhQ6VV4S6Ydh/ZaMFHgg1/PYXqX5uG/foqrJvM0Lck1CtQ5mubkZ3AhZXLxEZf04npx/ctcF2Psj4bf67l0wAAYZCmGUU4BlBqjuK7OxL9BUWpQqGOLge8/iEsHUy/gkKSg46cedLTcL4tGbfRnpxu1KXsLyquBvhzQvJfzOeWVXMwfmZZ4fCrNS04v/h2OznQcKWzkJbrXIiYDHY7nuTGDO3Jezmc213F5e1qiY+KC7mFgFD/gEm0OaQMdCd2RjBsfw8XDgUDGwOOIDcPTEZjSDRAyjxt51CiRbIu5aIcmjQ/hosnHyZ2p3+9ZhJEnX0/oa2xJKZB33e5eJoz0Wo+4cMfACjo5Hf86LjQSY58Biq7UlL2DSaw/6ERmjF5w8roGdAUw6zGH22pHLs7zdZAxhX+Gi+8cvhhUahZmqcMpptQx49fhGQPzhe27VyIufnfTN4pXcvFx/9C/A9TqQC6Ajrj4ow9GRu5utUIuSb7ti4wr/StIXF2ZYr/pAGWKZ0XiW4E1RnUje3VvywLXcXH7pNsyFm4GjIeiSI8BMTEe5OG+AOZK3dAPc/F06upgh+3kMnhAvXpCHo5bDOGybny6dR2XlZrluo8dbK0HOIJwCeFQYdV+geu0zlnjXl3XobPFB+BOLp8O53VCLesaLt91kL24DN3LRemYK/0M3Q2SeSjlX3qXw+OoEP/qnaqu3MlFXFdO2kvvY9pjnEibE0VP/vMbz0tpz7ROBKh7ueSMMEPejMWJejLt1tDNSB5o9fCsyHxCeieXssMZTY73V1wpZS/nO87d+sLTcKfoPnc6awBJPHdyUTipwPx3dCEFe1ciD8EsfQQDU1RS8AH8SIBSJU+LMWogj13wA1ygTmqTeliD6sw6CIvPWN7m5D/R2oOZklmI5rCCHVEK3OiuFEaG9Wy/dT8XjAkSufhuTemU2/XoqGCO1zlSsHdBq1XTfY9Uf2Sq1HqkPuusAXL37z2qwHjpS7mfS187ZNikAC4UAhpVpPijj1yoeofNcq/nWaSi5oLQ41oWGehAhuFCDnA5y1nuD9grKoURDY+B4KdYyTzkSFFzeILlRi6lyxIfNZIjyQL6T3BRYG1xfCyJcNafZB7q+akT5Ng0qPUSixKJq+NK9ge44Jp1H8DBIvdMB3vAyGiRRbjQqqEF6gFPTpAk2pom0gNwZWgkKTSYHK5I8DpNuo8LXqXV98YBlOX1AYBRrQO1Uyh9WocHfZ1qKXv5M5g4wbjXr6UDKeN2PAt1ljt+VDbrU3SJdOLNLwUo31A6+e+ZOirx9PgBPEGE7aKS9Z8l4VnKt5hsxD2L+GXZSy+9lFOidkbV52It2mc0az6Tq9Ios5kavGvX9BdMLPHnuUrZYtvXcFWMJZK6/WmwO7mENluGKo2Kx4XPfhhXeZDWVf71aK7yajZMaVQpABf7blaTElJYlUzMS1x3oR64LoxaRRCam+2WEgQBflYFY1fIgRlybQX8boTShPfV3Gw28I9wWxg8cH2cO0PURu0ldr+Saiw+xCGOukOqOUd/1TLu/05i8RxDaOLwfVliYQ+2pLZn2i1kf+USNmqJJR8OA4JtaOoARd0lpbXRQTmcvSQWG9Dq4odhRz1gF7a0HF0VofNxmUa5HA8fg+USvS6rlGawJ7EFcokbdZB8t8y2hdu5su9Ja7Pl1Kfg14irncllLk/ehrHQvJnLbCaFp5/5zkb3jBSjO2cvOLphh5INhzPqPstbnURcq+0oqQZsFObhkLD2+2w2a9sHEmyvU/9qaxs8zCV2ORw1tqPZivQor64JhhlcePYkVGqI1MYmg1YyPrRmpamZM7t84Ko0IOpsRd4YzrEWzTlpXn5UK6JYaX7MwvPzJvaz+dHeigIZqXKpETmf1gjBIBclCkIsfuHBFyszYq5DctVIYh/kHchLXB8hxPw4nYQonarh65CrEZoj5CrbDU3DQycuVKxhzil5gau5GRDXi4eQcCac5RqF3KXVcGuaWhWOPlbe2HqoJ9L1Khw8MoyDRKITFxftRVXUyAPZAZwtxmwraLckyqieUI20FuY7jqB2KvZEcTWbqzqPRVV4syVbbTdzR694vBeSqlIavvXyKhlxq6uLXJQ2LCXjGoR73+ReXF2I9+e42ItccGosB8ncBaPZ4kb/ysqPJrHMMjkKonrZXvAMs7FaQjPF2Fh7c1v8yuIKEyCb9NuNfdHvyUVNaj58t2GdE7ENrlotXMfVbAxOh1gzBhe5mqFzijA7mPO2GiWIUk7fv1RPmOE1t0fnqFTs8iWuJlkmzEgUhbFrYUQXyTeQx3pCTAnaJoyh9iYK1lVKPeahBFeYl01cNbKH17BKDDPoNl/mvmQvMcrpy7mJ0nDT3EbFVYqLXZkfSFp1GKaDj2bERQqMUs6C4my8R+vHqMQqsyosW0Yz9eDHBy4jKrHxH0Nb2GGdM1tUqppANVYh6G3+dSpcEhyKT3ZQOhbtMa7qMB6p4KwL5wUEtVV1tVLDIDuY/VTexlwipZ5WxXGuMC3F+piraKixwob3W/N2NhdVEVOrCGiHBJcwG5RTfVapdQe0lpp7kQu5ypkKI6EoDO3j+LHl5Qjbgz3YC7cn+piGHc9DsNJvC7lLCnGrZmtphB6hbY0li2f/ALp/pbqykVaHK8AQRd6CIn20jaGWBgMyfVi73bhh/QhdtypkqXqY2LBeXsyMdtuYbQS40m+i86sxfxGFw0MN8dBDbAxhl7Yxp6r5jXW1xGruJ8EVgTw9fhzUSy+99M+omL809Av7e9Fi/r72q7C/Ry7q77eL+nv3ou4PUNj9FIq6/0RR9+so7P4mRd0Ppqj75xTMw477DRV2f6ai7mdV2P2/3iYFcTGlm9wv7W2yLgKYsk7tL/f2FrjPB1PWwf9m/8LC7vf4VtT9Md8Ku5/oG9p/tfb7ZHrtL/uvIi9DPwD95f1q/fFf96vFo1nE/X1DNLQf8qNXSu6F/ZD/A6kPNS75yWWUAAAAAElFTkSuQmCC;" vertex="1" parent="CiFOM2ui6DQVVok30smi-1">
                    <mxGeometry x="21" y="140" width="60" height="60" as="geometry"/>
                </mxCell>
                <mxCell id="CiFOM2ui6DQVVok30smi-16" value="consumed by" style="edgeStyle=orthogonalEdgeStyle;rounded=1;sketch=0;jumpStyle=none;orthogonalLoop=1;jettySize=auto;html=1;entryX=0.5;entryY=1;entryDx=0;entryDy=0;shadow=0;labelBackgroundColor=none;strokeWidth=1;" edge="1" parent="CiFOM2ui6DQVVok30smi-1" source="CiFOM2ui6DQVVok30smi-14" target="CiFOM2ui6DQVVok30smi-3">
                    <mxGeometry x="-0.1152" y="-8" relative="1" as="geometry">
                        <mxPoint as="offset"/>
                    </mxGeometry>
                </mxCell>
                <mxCell id="CiFOM2ui6DQVVok30smi-14" value="Accept Order&lt;br&gt;&lt;b&gt;&amp;lt;Event&amp;gt;&lt;/b&gt;" style="shape=hexagon;perimeter=hexagonPerimeter2;whiteSpace=wrap;html=1;fixedSize=1;rounded=0;fillColor=#fff2cc;strokeColor=#d6b656;" vertex="1" parent="CiFOM2ui6DQVVok30smi-1">
                    <mxGeometry x="320" y="241" width="150" height="40" as="geometry"/>
                </mxCell>
            </root>
        </mxGraphModel>
    </diagram>
    <diagram name="EventEnhancement" id="t4CCxsyuTMmMoKH5mCp5">
        <mxGraphModel dx="400" dy="287" grid="0" gridSize="10" guides="0" tooltips="1" connect="1" arrows="1" fold="1" page="0" pageScale="1" pageWidth="850" pageHeight="1100" math="0" shadow="0">
            <root>
                <mxCell id="fUgjjeGeG7woy0a6jKUv-0"/>
                <mxCell id="fUgjjeGeG7woy0a6jKUv-1" parent="fUgjjeGeG7woy0a6jKUv-0"/>
                <mxCell id="fUgjjeGeG7woy0a6jKUv-2" value="produces" style="edgeStyle=orthogonalEdgeStyle;rounded=1;sketch=0;jumpStyle=none;orthogonalLoop=1;jettySize=auto;html=1;entryX=0;entryY=0.5;entryDx=0;entryDy=0;shadow=0;labelBackgroundColor=none;strokeWidth=1;" edge="1" parent="fUgjjeGeG7woy0a6jKUv-1" source="fUgjjeGeG7woy0a6jKUv-4" target="fUgjjeGeG7woy0a6jKUv-6">
                    <mxGeometry x="-0.1429" y="10" relative="1" as="geometry">
                        <mxPoint as="offset"/>
                    </mxGeometry>
                </mxCell>
                <mxCell id="fUgjjeGeG7woy0a6jKUv-4" value="&lt;i&gt;Some&lt;/i&gt; Adapter &lt;b&gt;Microservice&lt;/b&gt;" style="ellipse;whiteSpace=wrap;html=1;rounded=1;fillColor=#d5e8d4;strokeColor=#82b366;" vertex="1" parent="fUgjjeGeG7woy0a6jKUv-1">
                    <mxGeometry x="6" y="64.5" width="88" height="80" as="geometry"/>
                </mxCell>
                <mxCell id="fUgjjeGeG7woy0a6jKUv-5" value="consumed" style="edgeStyle=orthogonalEdgeStyle;rounded=1;sketch=0;jumpStyle=none;orthogonalLoop=1;jettySize=auto;html=1;shadow=0;labelBackgroundColor=none;strokeWidth=1;entryX=0;entryY=0.5;entryDx=0;entryDy=0;" edge="1" parent="fUgjjeGeG7woy0a6jKUv-1" source="fUgjjeGeG7woy0a6jKUv-6" target="fUgjjeGeG7woy0a6jKUv-12">
                    <mxGeometry x="-0.0645" y="12" relative="1" as="geometry">
                        <mxPoint x="405" y="104.5" as="targetPoint"/>
                        <mxPoint as="offset"/>
                    </mxGeometry>
                </mxCell>
                <mxCell id="fUgjjeGeG7woy0a6jKUv-6" value="New Normalized Order&lt;br&gt;&lt;b&gt;&amp;lt;Event&amp;gt;&lt;/b&gt;" style="shape=hexagon;perimeter=hexagonPerimeter2;whiteSpace=wrap;html=1;fixedSize=1;rounded=0;fillColor=#fff2cc;strokeColor=#d6b656;" vertex="1" parent="fUgjjeGeG7woy0a6jKUv-1">
                    <mxGeometry x="168" y="84.5" width="150" height="40" as="geometry"/>
                </mxCell>
                <mxCell id="fUgjjeGeG7woy0a6jKUv-7" value="produces" style="edgeStyle=orthogonalEdgeStyle;rounded=1;sketch=0;jumpStyle=none;orthogonalLoop=1;jettySize=auto;html=1;entryX=1;entryY=0.5;entryDx=0;entryDy=0;shadow=0;labelBackgroundColor=none;strokeWidth=1;exitX=0.5;exitY=1;exitDx=0;exitDy=0;" edge="1" parent="fUgjjeGeG7woy0a6jKUv-1" source="fUgjjeGeG7woy0a6jKUv-29" target="fUgjjeGeG7woy0a6jKUv-11">
                    <mxGeometry x="-0.9841" y="-30" relative="1" as="geometry">
                        <mxPoint x="577" y="342.5" as="sourcePoint"/>
                        <Array as="points">
                            <mxPoint x="1125" y="286.5"/>
                        </Array>
                        <mxPoint as="offset"/>
                    </mxGeometry>
                </mxCell>
                <mxCell id="fUgjjeGeG7woy0a6jKUv-11" value="Accept Order&lt;br&gt;&lt;b&gt;&amp;lt;Event&amp;gt;&lt;/b&gt;" style="shape=hexagon;perimeter=hexagonPerimeter2;whiteSpace=wrap;html=1;fixedSize=1;rounded=0;fillColor=#fff2cc;strokeColor=#d6b656;" vertex="1" parent="fUgjjeGeG7woy0a6jKUv-1">
                    <mxGeometry x="166" y="266" width="150" height="40" as="geometry"/>
                </mxCell>
                <mxCell id="fUgjjeGeG7woy0a6jKUv-15" value="produces" style="edgeStyle=orthogonalEdgeStyle;rounded=1;sketch=0;jumpStyle=none;orthogonalLoop=1;jettySize=auto;html=1;entryX=1;entryY=0.5;entryDx=0;entryDy=0;shadow=0;labelBackgroundColor=none;strokeWidth=1;" edge="1" parent="fUgjjeGeG7woy0a6jKUv-1" source="fUgjjeGeG7woy0a6jKUv-12" target="fUgjjeGeG7woy0a6jKUv-13">
                    <mxGeometry x="0.2067" y="-11" relative="1" as="geometry">
                        <Array as="points">
                            <mxPoint x="420" y="179.5"/>
                        </Array>
                        <mxPoint as="offset"/>
                    </mxGeometry>
                </mxCell>
                <mxCell id="fUgjjeGeG7woy0a6jKUv-18" value="produces" style="edgeStyle=orthogonalEdgeStyle;rounded=1;sketch=0;jumpStyle=none;orthogonalLoop=1;jettySize=auto;html=1;entryX=0;entryY=0.5;entryDx=0;entryDy=0;shadow=0;labelBackgroundColor=none;strokeWidth=1;" edge="1" parent="fUgjjeGeG7woy0a6jKUv-1" source="fUgjjeGeG7woy0a6jKUv-12" target="fUgjjeGeG7woy0a6jKUv-17">
                    <mxGeometry x="-0.129" y="10" relative="1" as="geometry">
                        <mxPoint as="offset"/>
                    </mxGeometry>
                </mxCell>
                <mxCell id="fUgjjeGeG7woy0a6jKUv-12" value="&lt;i&gt;Menu&lt;/i&gt;&lt;br&gt;&lt;b&gt;Microservice&lt;/b&gt;" style="ellipse;whiteSpace=wrap;html=1;rounded=1;fillColor=#d5e8d4;strokeColor=#82b366;" vertex="1" parent="fUgjjeGeG7woy0a6jKUv-1">
                    <mxGeometry x="376" y="64.5" width="88" height="80" as="geometry"/>
                </mxCell>
                <mxCell id="fUgjjeGeG7woy0a6jKUv-16" style="edgeStyle=orthogonalEdgeStyle;rounded=1;sketch=0;jumpStyle=none;orthogonalLoop=1;jettySize=auto;html=1;shadow=0;labelBackgroundColor=none;strokeWidth=1;" edge="1" parent="fUgjjeGeG7woy0a6jKUv-1" source="fUgjjeGeG7woy0a6jKUv-13" target="fUgjjeGeG7woy0a6jKUv-4">
                    <mxGeometry relative="1" as="geometry"/>
                </mxCell>
                <mxCell id="fUgjjeGeG7woy0a6jKUv-13" value="Reject Order&lt;br&gt;&lt;b&gt;&amp;lt;Event&amp;gt;&lt;/b&gt;" style="shape=hexagon;perimeter=hexagonPerimeter2;whiteSpace=wrap;html=1;fixedSize=1;rounded=0;fillColor=#fff2cc;strokeColor=#d6b656;" vertex="1" parent="fUgjjeGeG7woy0a6jKUv-1">
                    <mxGeometry x="166" y="159.5" width="150" height="40" as="geometry"/>
                </mxCell>
                <mxCell id="fUgjjeGeG7woy0a6jKUv-20" value="consumed" style="edgeStyle=orthogonalEdgeStyle;rounded=1;sketch=0;jumpStyle=none;orthogonalLoop=1;jettySize=auto;html=1;shadow=0;labelBackgroundColor=none;strokeWidth=1;" edge="1" parent="fUgjjeGeG7woy0a6jKUv-1" source="fUgjjeGeG7woy0a6jKUv-17" target="fUgjjeGeG7woy0a6jKUv-19">
                    <mxGeometry x="-0.0545" y="10" relative="1" as="geometry">
                        <mxPoint as="offset"/>
                    </mxGeometry>
                </mxCell>
                <mxCell id="fUgjjeGeG7woy0a6jKUv-17" value="Order With Items&lt;br&gt;&lt;b&gt;&amp;lt;Event&amp;gt;&lt;/b&gt;" style="shape=hexagon;perimeter=hexagonPerimeter2;whiteSpace=wrap;html=1;fixedSize=1;rounded=0;fillColor=#fff2cc;strokeColor=#d6b656;" vertex="1" parent="fUgjjeGeG7woy0a6jKUv-1">
                    <mxGeometry x="526" y="84.5" width="150" height="40" as="geometry"/>
                </mxCell>
                <mxCell id="fUgjjeGeG7woy0a6jKUv-25" value="produces" style="edgeStyle=orthogonalEdgeStyle;rounded=1;sketch=0;jumpStyle=none;orthogonalLoop=1;jettySize=auto;html=1;entryX=1;entryY=0.5;entryDx=0;entryDy=0;shadow=0;labelBackgroundColor=none;strokeWidth=1;" edge="1" parent="fUgjjeGeG7woy0a6jKUv-1" source="fUgjjeGeG7woy0a6jKUv-19" target="fUgjjeGeG7woy0a6jKUv-21">
                    <mxGeometry x="0.3491" y="-11" relative="1" as="geometry">
                        <Array as="points">
                            <mxPoint x="775" y="233.5"/>
                        </Array>
                        <mxPoint as="offset"/>
                    </mxGeometry>
                </mxCell>
                <mxCell id="fUgjjeGeG7woy0a6jKUv-28" value="produces" style="edgeStyle=orthogonalEdgeStyle;rounded=1;sketch=0;jumpStyle=none;orthogonalLoop=1;jettySize=auto;html=1;entryX=0;entryY=0.5;entryDx=0;entryDy=0;shadow=0;labelBackgroundColor=none;strokeColor=#000000;strokeWidth=1;" edge="1" parent="fUgjjeGeG7woy0a6jKUv-1" source="fUgjjeGeG7woy0a6jKUv-19" target="fUgjjeGeG7woy0a6jKUv-27">
                    <mxGeometry y="10" relative="1" as="geometry">
                        <mxPoint as="offset"/>
                    </mxGeometry>
                </mxCell>
                <mxCell id="fUgjjeGeG7woy0a6jKUv-19" value="&lt;i&gt;Taxes&lt;/i&gt;&amp;nbsp;&lt;br&gt;&lt;b&gt;Microservice&lt;/b&gt;" style="ellipse;whiteSpace=wrap;html=1;rounded=1;fillColor=#d5e8d4;strokeColor=#82b366;" vertex="1" parent="fUgjjeGeG7woy0a6jKUv-1">
                    <mxGeometry x="731" y="64.5" width="88" height="80" as="geometry"/>
                </mxCell>
                <mxCell id="fUgjjeGeG7woy0a6jKUv-26" style="edgeStyle=orthogonalEdgeStyle;rounded=1;sketch=0;jumpStyle=none;orthogonalLoop=1;jettySize=auto;html=1;entryX=0.5;entryY=1;entryDx=0;entryDy=0;shadow=0;labelBackgroundColor=none;strokeWidth=1;" edge="1" parent="fUgjjeGeG7woy0a6jKUv-1" source="fUgjjeGeG7woy0a6jKUv-21" target="fUgjjeGeG7woy0a6jKUv-4">
                    <mxGeometry relative="1" as="geometry"/>
                </mxCell>
                <mxCell id="fUgjjeGeG7woy0a6jKUv-21" value="Reject Order&lt;br&gt;&lt;b&gt;&amp;lt;Event&amp;gt;&lt;/b&gt;" style="shape=hexagon;perimeter=hexagonPerimeter2;whiteSpace=wrap;html=1;fixedSize=1;rounded=0;fillColor=#fff2cc;strokeColor=#d6b656;" vertex="1" parent="fUgjjeGeG7woy0a6jKUv-1">
                    <mxGeometry x="166" y="213.5" width="150" height="40" as="geometry"/>
                </mxCell>
                <mxCell id="fUgjjeGeG7woy0a6jKUv-10" value="consumed" style="edgeStyle=orthogonalEdgeStyle;rounded=1;sketch=0;jumpStyle=none;orthogonalLoop=1;jettySize=auto;html=1;entryX=0.5;entryY=1;entryDx=0;entryDy=0;shadow=0;labelBackgroundColor=none;strokeWidth=1;" edge="1" parent="fUgjjeGeG7woy0a6jKUv-1" source="fUgjjeGeG7woy0a6jKUv-11" target="fUgjjeGeG7woy0a6jKUv-4">
                    <mxGeometry x="0.8672" y="-32" relative="1" as="geometry">
                        <mxPoint as="offset"/>
                    </mxGeometry>
                </mxCell>
                <mxCell id="fUgjjeGeG7woy0a6jKUv-30" value="consumed" style="edgeStyle=orthogonalEdgeStyle;rounded=1;sketch=0;jumpStyle=none;orthogonalLoop=1;jettySize=auto;html=1;entryX=0;entryY=0.5;entryDx=0;entryDy=0;shadow=0;labelBackgroundColor=none;strokeColor=#000000;strokeWidth=1;" edge="1" parent="fUgjjeGeG7woy0a6jKUv-1" source="fUgjjeGeG7woy0a6jKUv-27" target="fUgjjeGeG7woy0a6jKUv-29">
                    <mxGeometry x="-0.0769" y="10" relative="1" as="geometry">
                        <mxPoint as="offset"/>
                    </mxGeometry>
                </mxCell>
                <mxCell id="fUgjjeGeG7woy0a6jKUv-27" value="Order With Taxes&lt;br&gt;&lt;b&gt;&amp;lt;Event&amp;gt;&lt;/b&gt;" style="shape=hexagon;perimeter=hexagonPerimeter2;whiteSpace=wrap;html=1;fixedSize=1;rounded=0;fillColor=#fff2cc;strokeColor=#d6b656;" vertex="1" parent="fUgjjeGeG7woy0a6jKUv-1">
                    <mxGeometry x="879" y="84.5" width="150" height="40" as="geometry"/>
                </mxCell>
                <mxCell id="fUgjjeGeG7woy0a6jKUv-29" value="&lt;i&gt;Kitchen&lt;/i&gt;&amp;nbsp;&lt;br&gt;&lt;b&gt;Microservice&lt;/b&gt;" style="ellipse;whiteSpace=wrap;html=1;rounded=1;fillColor=#d5e8d4;strokeColor=#82b366;" vertex="1" parent="fUgjjeGeG7woy0a6jKUv-1">
                    <mxGeometry x="1081" y="64.5" width="88" height="80" as="geometry"/>
                </mxCell>
                <mxCell id="fUgjjeGeG7woy0a6jKUv-32" value="" style="endArrow=none;dashed=1;html=1;dashPattern=1 3;strokeWidth=2;shadow=0;labelBackgroundColor=none;" edge="1" parent="fUgjjeGeG7woy0a6jKUv-1">
                    <mxGeometry width="50" height="50" relative="1" as="geometry">
                        <mxPoint x="337" y="339.5" as="sourcePoint"/>
                        <mxPoint x="337" y="6.5" as="targetPoint"/>
                    </mxGeometry>
                </mxCell>
                <mxCell id="fUgjjeGeG7woy0a6jKUv-33" value="Mimic Domain" style="text;html=1;strokeColor=none;fillColor=none;align=center;verticalAlign=middle;whiteSpace=wrap;rounded=0;fontStyle=1" vertex="1" parent="fUgjjeGeG7woy0a6jKUv-1">
                    <mxGeometry x="351" y="13.5" width="58" height="34" as="geometry"/>
                </mxCell>
                <mxCell id="fUgjjeGeG7woy0a6jKUv-34" value="Integration Domain" style="text;html=1;strokeColor=none;fillColor=none;align=center;verticalAlign=middle;whiteSpace=wrap;rounded=0;fontStyle=1" vertex="1" parent="fUgjjeGeG7woy0a6jKUv-1">
                    <mxGeometry x="251" y="13.5" width="73" height="34" as="geometry"/>
                </mxCell>
                <mxCell id="fUgjjeGeG7woy0a6jKUv-35" value="" style="shape=image;imageAspect=0;aspect=fixed;verticalLabelPosition=bottom;verticalAlign=top;image=https://media-exp1.licdn.com/dms/image/C560BAQG4o8_wm_RFJg/company-logo_200_200/0/1609860108272?e=1628121600&amp;v=beta&amp;t=UN3Ccs5jaMUtjpFMSXfqNuETMFFadim6-J08MsScSFk;" vertex="1" parent="fUgjjeGeG7woy0a6jKUv-1">
                    <mxGeometry x="413" y="5" width="51" height="51" as="geometry"/>
                </mxCell>
                <mxCell id="3wrQekvjoS4dPIGyGXSK-2" value="" style="shape=image;verticalLabelPosition=bottom;labelBackgroundColor=#ffffff;verticalAlign=top;aspect=fixed;imageAspect=0;image=data:image/png,iVBORw0KGgoAAAANSUhEUgAAAJcAAAA/CAMAAADaDqrIAAAAflBMVEX/////RB//Qhv/NgD/MQD/QBf/KwD/PA//PhP/+/r/8/H/zcf/6ef/OQb/5+T/ycP/IQD/wLn/mo7/7uz/0s3/eGb/jX//iHn/39v/2dX/oZb/sqn/fWz/VDj/ppz/raT/bVn/TCv/uLD/Z1L/k4b/YUr/g3L/cmD/WkD/TTLgTummAAAIaklEQVRogc1a6ZazOA4F29hAIIGQlVQWklSW93/B8SbJENLd802lenRO/QjCRpaurmS7ouj/S7J/24AxyXan5/5r9lafb+vzsT3s6kX+i1ZFxV6kjCm5HFNm51siBOe81H9CqOX5t2zL4jS2wr9edIub1DbHJCzlcrn4FbvmHD4qJwOrLlLFr5LK0/QX7CJ/qHX4vLkL70imdAS1lPBmKo4fNyuv0BHJJXh+rsAq0a3rbZMXi8OeXHv9tF3ZuF034R/y7kwkcoCnsTh82rCY4rjChxfvGVZde9TWkse2H7aLfICfyr5L70FuUyFD27InrCL5/rBd0cMbIRAzS++VJJ5G2eH+vX8+TquNVa0xQ6vNh+3K71IlaSnn8AA8yLjmA52VCWNJUgqr22Eg+edzcrK6nOa4/ClkgtSPFpgWlQ1mjXYFaPwduSQ+rsYhp6RPbmeya/3X0/y0bKUnT8MaG8o/x/Hz8sVfxfl2Oq0nbye0spjfT8vjm7ZlctXK3d/0NDePbG4CizBP704LztR6x2DTpeAankraF/JZHfBHNvG/Fk9RpknKVWA9vjrrnDINE2lTz5qeWcAEqWkvGgW0INyMDVUtV01bmYKdX1G2roSQ5c5P1VaCS5MeV+lHMWK9q3lVnaPoC5UCy+6i09rqUgR2Ff7LdoYjhJHtnRYfaEszQ3RIfjoxGlckmHSZepTu1/xOLyV7sNkr2wvNqO5gg7RRUXH+YhdLzI8OvOODlrFekc87ZDP9PDlBkYjtu1BIFHjULtc1SVj9yiRUeoed/AixI7t8HJVhs4VE5zjLV4j6WHNb3sEXWWlGwSdcKTgHrmQc3lSOvNtyTOlXP4GRIuyhHdS5jny0hAGp62UnaGfMtd0n9BavIyr/sajNy0/qJ1lZr1Roc9aRMmEz+I6nngt0Ml2Yorkw6zb+zqlyWoxPE5zN4CQorHUQcj8d+Vo7ZBvVUENsjGvyJSsLLCLJKQpH8n7PMo2FKmUT1BzGzPMNQywkvImmODc3TPZAu9x0J0KVyeW+XcQ2FlOQTa7RwpFywGh6r2Gr9DeM5q1ZBiezlFZ/QRSdf5BRmDJYLILENXYewpzYkC+FwcsVgmzswjJYvuk9ieuFNqMVlIq6zYi2vShGhC8HEmrUkof5DWxtCedKRcNSAzggNTsfQCJm51BwQ6LDvnjid5g4Gf8sYbhDMrmgMtNle+JfS+MAP/tpXJIBlxaY2yRrBiCGCvMi1ALe75LQE5+j0Nu+EmA9d2YS6l00KDiHEPUWINECe/ZzMJF4U3G3BIIEMczF1TEZ1m9fCSBOniSwrrLElrlj+DVEPSv7cxnXAuqhwrzIdbh3ZKkQc6gMHCvBuedcFpsgZ+Qu120+wBTdxU2ptTz0lCaBCvRd+8YuHu6zzSh2r1GJlMy4cy78dmEjrhfWXQXYaTLugPRTZr2x6itQiubVpEEY/YthG4Jx8nUFM8x2RxSp1J0tYNnhu4B+vC+xuBkIgNJR7IjMh2GUoV2Ybq5xwbriSKEZbrEwhbQXKHNdX5MB87E0jxrIDwfTaHsf7lOfgzDGIjgu2VD/47p+RIWdZtgeodrUWUS530bjy+oWlBjH9QVXVd0zi0gVhAcvIH58M42hccHe9wpFgHrTIOCCuetiEMcmIAAA3yh8p3349BpAmCbYl636rIBYdFlAqHexR3exZ4hbXvQ+ZCCANdd97Mpt3xLKPWzm0M0v2tJChGDeb759lLH3NsWQyMvGOMdOU84CFrQL2knqb73kOBcDExyko15gfEuD/ilb01hifXdLwVJpemDiett5Gpf46XWdmFEh0CxRy0GyRUEdYU9o2hhDRsH0Y48euuLyGOUPSmTLuQUBqA5bONuMbojoFlGDSsZyjQb2emqEhJMucYdNCUm0YFLqSE2efrsLAMANS2A7pU5RQ76MKwMv/K05tUlIyc8rYUcMBAHEzwMqt3Y9A7t6BJz2qoRB3xxBn+RbEewyKj3RGkOc6iCGQ7n2etK9bHWp9ZoWWIIJgxA5/WjKhkRHooroTJWyPsjw1SrsxNXsqs1KeqOD/STCHmjXJP6zz+1GsFdNVqw/WU/4mb4cx48+9QhtCv7o9qW249Kba3gMHQWxSW+vuyItO1ro0Fu937zsadJebeOqp1R8VgSQYGLkooO2JOfwyKsCxzahOSz8On+8DSuTp4V4p0zEsgk6oHGzKI4maaa4CmptrzRDmm4we/W+HjugcoiWrqZmdNBEJXI/CfMpVmr8+PbmJmCd+UGxEVgjASyJ+G70MtwbStdQ6IDUlba9eo8k9mYonKbxY0AnWvnwzmmFX8PlzW1PdrJZqyyiDrTnUBDJ7Etypbjc2+JbC/OD3xqiNrHJH1KpVJlLiefKLR9PIvNpJ0C5v5JvTnpIKbtd9FaOTArpijm1U5pScCGbdr1uYcZpu17tDFFCd8WEtn12vd1uq7aeeh6COmNqTlav+kon9Wo9n/z1Cd2mhhfoEDpOWZ9UBqdnWChGTzmhDSnnI8o/kCBPDLTRZflRSNlHAjCuqF9moU2k+KkbuXlIiZytZptiut0tFR8e42eEoNdZoNdk3Y/dYXZh0usE4mmp//TyZf/SEhF0GZkEiPDtTvq/l6kcpUs2vPADBPGxay0oHH7L+SMyESOG8W4IFEDQ2K0WUUjxqvxjmclhgU7kapjQhc9G9hxJdaSQ+AfN0qF8hsVDY+zyenEF8ErH7vChCKmfvlM9PqWyTkuUUF9juQ7I5mOEDRvH0Yr8P0k2Wz94JcvvdT1+egC7Cj52Bwg7suoj/+mQZdn7MpG7UDM1pvRHNW8PkD4pteWTN3e5O6sM96G/J7NYlmX1hqBqLlRZ/Ti8/pFks7Z9W/6yum3/6L7+P016dN1sVodjAAAAAElFTkSuQmCC;" vertex="1" parent="fUgjjeGeG7woy0a6jKUv-1">
                    <mxGeometry x="185.09" y="13.5" width="65.91" height="27.5" as="geometry"/>
                </mxCell>
            </root>
        </mxGraphModel>
    </diagram>
</mxfile>
